<?xml version="1.0" encoding="UTF-8"?>
<svg width="1616" height="1616" version="1.1" viewBox="0 0 1616 1616" xml:space="preserve" xmlns="http://www.w3.org/2000/svg"><g transform="translate(-657.07 -482.67)"><rect x="624.95" y="436.27" width="1677.8" height="1702.8" fill="#fce186"/><ellipse cx="1476.5" cy="1006" rx="284.99" ry="286.08" fill="#fdfdfd"/><g transform="translate(-3116.6 -142)"><path d="m3916.1 2239.7c-0.7861-2.0486 15.393-44.01 25.774-66.847 3.181-6.9978 17.511-40.839 22.019-52 1.8884-4.675 6.1542-14.8 9.4796-22.5s8.0634-18.95 10.529-25c6.3385-15.554 8.5541-20.741 9.7263-22.773 0.5626-0.9751 3.5422-7.9501 6.6212-15.5 7.6913-18.859 9.6595-23.63 13.087-31.727 1.6299-3.85 4.2405-10.15 5.8014-14 3.1905-7.8695 10.19-24.507 22.717-54 4.6723-11 11.287-26.75 14.7-35 3.4129-8.25 7.4954-17.925 9.0722-21.5s4.6934-11.125 6.9259-16.778c2.2324-5.6531 5.8575-14.135 8.0558-18.849 4.2866-9.1922 4.7885-11.372 2.6181-11.372-1.4184 0-11.62 5.8467-14.503 8.3121-0.89 0.7612-2.2933 1.6285-3.1183 1.9276-1.6408 0.5947-27.18 15.376-41.5 24.02-20.526 12.389-31.593 18.773-42 24.227-6.05 3.1705-14.825 8.0357-19.5 10.811-4.675 2.7758-12.775 7.594-18 10.707-50.023 29.804-50.226 29.737-31.757-10.505 10.986-23.938 16.793-37.385 24.833-57.5 4.5062-11.275 11.283-27.803 15.059-36.729 7.9672-18.833 8.0219-19.119 3.6157-18.919-4.2147 0.1912-4.1297-1.6111 0.8414-17.852 2.0201-6.6 5.0063-16.5 6.636-22s3.7935-12.25 4.8085-15c2.9825-8.0807 14.078-40.493 16.034-46.838 1.0917-3.5415 1.4982-6.6535 1.0333-7.9104-0.8693-2.35 0.6186-8.9958 4.3101-19.251 1.3858-3.85 6.3903-18.209 11.121-31.908 10.035-29.061 12.511-35.767 16.461-44.592 1.6002-3.575 6.5872-15.275 11.082-26 4.495-10.725 10.419-24 13.165-29.5 10.704-21.442 14.059-28.038 14.75-29 0.3954-0.55 2.0653-3.475 3.711-6.5 45.39-83.434 103.27-157.2 170.05-216.72 11.009-9.8117 16.446-15.343 16.843-17.135 1.2102-5.4654 1.7929-7.0357 8.5892-23.146 25.293-59.954 44.397-106.02 47.49-114.5 2.1852-5.9957 2.67-9.5272 3.3793-24.614 7.9592-169.3 165.3-280.77 349.81-247.86 135.01 24.088 227.08 126.78 227.13 253.32 0 10.48 2.1469 18.839 9.0118 35.148 1.6207 3.85 5.612 13.75 8.8697 22 3.2576 8.25 7.5804 18.825 9.6061 23.5s6.8205 16.375 10.655 26c3.8344 9.625 8.0361 19.975 9.337 23 10.116 23.523 11.42 28.418 8.4183 31.612-4.8367 5.1484-34.007 18.388-40.514 18.388-6.6781 0-7.7166 2.056-6.9346 13.73 1.0002 14.93 0.7209 87.009-0.4059 104.77-1.6869 26.591-4.9696 67.577-5.4783 68.4-0.2718 0.4397-1.3994 6.6045-2.5058 13.7-11.137 71.419-32.153 128.97-68.911 188.7-14.631 23.776-54.255 71.313-73.318 87.96-8.5084 7.4301-3.3334 5.6881 10.379-3.4935 6.7622-4.528 15.67-10.282 19.795-12.786 6.0972-3.7015 51.047-32.505 72.5-46.458 10.736-6.9825 79.794-51.61 93.716-60.561 8.0935-5.2043 18.562-11.937 23.263-14.962 28.098-18.08 50.24-32.731 51.765-34.25 2.2033-2.1952 2.7983-645.93 0.6009-650.04-1.3825-2.5832-31.497-34.955-63.43-68.186-12.697-13.213-27.997-29.328-34-35.811s-11.814-11.991-12.914-12.24-14.15-1.1241-29-1.9447c-28.259-1.5615-62.823-4.1859-70.5-5.3529-5.9634-0.90648-6.0279-2.0638-1.5626-28.036 4.1068-23.887 3.8726-23.443 11.986-22.722 43.57 3.8748 46.146 3.4847 40.014-6.0564-25.504-39.676-41.532-74.596-51.447-112.08-1.7133-6.4777-3.3271-12.518-3.5863-13.422-1.2546-4.3784 1.3523-4.8562 26.418-4.8417 30.844 0.0178 26.91-2.1787 33.722 18.829 15.662 48.301 39.691 88.116 80.756 133.81 19.523 21.723 71.588 75.848 72.961 75.848 0.9764 0 1.2928-23.925 1.4932-112.9 0.1834-81.412 0.5662-113.28 1.3725-114.25 1.8192-2.192 133.1-1.9745 135.3 0.22415 1.4161 1.4161 1.5729 18.389 1.5867 171.75 0.017 194.14-0.9166 178.98 9.9604 161.68 7.0324-11.186 22.899-35.971 44.811-70 3.0104-4.675 8.0565-12.55 11.214-17.5 21.484-33.685 18.178-32.096 31.191-15 4.605 6.05 11.396 14.95 15.091 19.778 8.5805 11.212 8.729 10.226-4.6362 30.77-6.2447 9.5986-19.05 29.827-28.455 44.952s-19.764 31.775-23.018 37c-15.824 25.405-49.838 80.07-52.579 84.5-3.0933 5-3.0933 5-3.5933 584.5s-0.5 579.5-69 579.5-68.5 0-68.752-254.28c-0.2729-275.43 0.1185-257.08-5.42-254.14-3.1888 1.6932-34.045 21.307-40.828 25.952-3.025 2.0717-9.325 6.1339-14 9.0271s-23.8 15.233-42.5 27.422-38.05 24.753-43 27.92c-4.95 3.1674-23.4 15.083-41 26.478-41.746 27.03-48.151 31.185-59.5 38.6-5.225 3.4139-19.4 12.434-31.5 20.045-12.1 7.6109-28.525 18.085-36.5 23.276s-16.075 10.44-18 11.665c-16.967 10.798-23.914 15.271-36.259 23.348-7.8325 5.1247-21.441 13.857-30.241 19.404-27.999 17.651-25.301 15.408-27.534 22.898-3.4781 11.668-7.7065 14.494-13.894 9.2879-4.0959-3.4465-10.533-0.236-13.592 6.7788-5.8617 13.441-18.345 21.842-21.989 14.797-1.8952-3.6649-0.07-4.5188-23.266 10.882-9.7491 6.4729-21.326 13.936-25.726 16.586-4.4 2.6492-14.075 8.7381-21.5 13.531-13.23 8.54-50.088 32.124-57 36.473-5.762 3.6252-24.579 15.656-39.5 25.254-24.288 15.624-19.488 17.5-42.026-16.421-9.7894-14.733-23.6-35.496-30.69-46.139-16.234-24.368-18.382-19.522 19.216-43.359 22.84-14.48 37.956-24.11 46-29.304 3.575-2.3086 9.6706-6.2429 13.546-8.7428 8.648-5.579 8.7663-5.7205 11.495-13.743 4.8437-14.238 16.991-28.162 32.459-37.204 15.127-8.8434 15.042-7.6988 1.2192-16.336-5.0705-3.1681-13.494-8.5658-18.719-11.995-5.225-3.429-12.65-7.9541-16.5-10.056-3.85-2.1018-9.0006-5.0788-11.446-6.6156-4.4376-2.7891-4.4799-2.7944-23-2.8781-10.205-0.046-23.729-0.4089-30.054-0.8061-6.325-0.3973-12.031-0.5483-12.681-0.3357-0.6495 0.2126-6.2204 15.763-12.38 34.556-6.1595 18.793-17.419 52.845-25.021 75.67-7.6022 22.825-14.302 43.75-14.887 46.5-0.5858 2.75-1.4816 5.9-1.9907 7-2.4245 5.2393-12.18 34.128-17.56 52-1.9867 6.6-4.2431 12.975-5.0143 14.166-1.6549 2.5568-2.6023 2.9343-48.466 19.314-22.516 8.0414-32.965 11.951-35.8 13.397-1.4851 0.7572-8.1002 3.2755-14.7 5.596-6.6 2.3206-14.925 5.2746-18.5 6.5646-3.575 1.2899-16.175 5.7954-28 10.012-11.825 4.2168-28.925 10.344-38 13.617s-18.3 6.5357-20.5 7.2513c-2.2 0.7157-11.425 4.1315-20.5 7.5907s-20.1 7.5116-24.5 9.0055c-15.999 5.432-48.159 16.902-54.5 19.438-8.4778 3.3905-13.787 4.2667-14.505 2.3942zm574.08-326.33c3.2614-0.8515 9.6549-1.9731 14.208-2.4924 4.5529-0.5193 8.8279-1.267 9.5-1.6617 0.6722-0.3946 10.897-7.0824 22.722-14.862 11.825-7.7794 23.723-15.42 26.441-16.978 10.71-6.1429 28.559-18.631 28.559-19.981 0-2.7973-1.983-2.4843-15.656 2.4712-36.614 13.27-46.657 16.57-58.844 19.333-24.785 5.62-32.123 7.0991-50.5 10.179-31.735 5.3188-31.39 5.1587-22.795 10.59 5.3743 3.3959 7.0562 4.3289 21.295 11.814 8.8945 4.6753 12.396 4.897 25.07 1.5879zm110.98-672.27c2.0137-6.4625 5.4588-16.475 7.6558-22.25 13.125-34.5 10.076-64.842-7.2354-72.012-5.0027-2.0722-5.0523-1.7574-5.5361 35.119-0.2482 18.916-0.6405 42.605-0.8719 52.643-0.5239 22.729 0.563 23.909 5.9876 6.5zm-159.54-19.547c73.436-19.048 99.26-108.53 47.057-163.06-53.526-55.913-148.99-29.805-167.08 45.693-1.0322 4.3075-2.4122 8.477-3.0667 9.2656-2.2507 2.712-0.5672 29.402 2.5169 39.903 8.0089 27.268 30.492 54.603 51.156 62.195 26.304 9.6644 48.062 11.548 69.419 6.008zm-25.782-21.662c-46.595-12.567-70.506-66.992-48.526-110.45 35.746-70.68 139.1-47.06 142.04 32.462 1.9292 52.122-44.831 91.121-93.513 77.991zm19.942-98.696c2.3583-2.1343 2.3117-3.862-0.1713-6.345-2.4077-2.4077-4.3218-2.5353-6.4286-0.4286-4.5835 4.5835 1.7909 11.126 6.5999 6.7736zm35.158-1.709c6.6321-2.7711 11.476-11.531 10.184-18.417-2.8634-15.263-20.639-20.571-30.891-9.2233-12.414 13.741 3.4118 34.866 20.706 27.64zm335.27 120.65c42.214-12.845 80.196-75.701 65.042-107.64-0.9-1.8965-1.6363-4.3184-1.6363-5.3819 0-6.2434-8.6463-26.032-16.06-36.756-42.67-61.725-137.37-54.099-169.39 13.641-36.963 78.188 37.933 161.73 122.05 136.13zm-61.595-18.98c-52.065-8.8544-79.943-66.282-54.916-113.13 35.364-66.191 131.68-47.422 141.14 27.504 6.2835 49.75-38.088 93.81-86.228 85.622zm10.066-99.338c2.1923-1.1732 2.6358-5.8634 0.7343-7.7648-3.0445-3.0445-7.8-0.6361-7.8 3.9503 0 3.9598 3.3823 5.7858 7.0657 3.8145zm37.352-3.9141c4.4991-2.7806 7.9735-9.4279 7.888-15.092-0.3121-20.69-30.579-23.34-34.298-3.0031-2.7563 15.073 13.394 26.139 26.41 18.095z" fill="#e8ccb6"/><path d="m3917.6 2238.1c0-1.0743 13.623-34.708 23.974-59.187 4.5348-10.725 11.753-27.825 16.041-38 4.2876-10.175 15.305-36.275 24.483-58 19.454-46.049 26.435-62.656 36.991-88 4.2379-10.175 12.205-29.06 17.705-41.968 5.4997-12.907 11.787-27.982 13.972-33.5 6.5994-16.666 11.55-28.578 25.502-61.364 7.3333-17.232 13.333-31.52 13.333-31.75 0-1.2724-3.6824 0.6744-21.68 11.461-27.633 16.562-32.772 19.619-49.82 29.639-8.25 4.8487-18.15 10.704-22 13.011-3.85 2.3073-11.05 6.3582-16 9.0018s-12.825 7.1364-17.5 9.9839-17.05 10.024-27.5 15.947-21.62 12.292-24.822 14.154c-5.9252 3.4446-8.6783 4.1951-8.6783 2.3657 0-1.4041 11.611-27.56 14.418-32.481 2.7826-4.8771 13.036-29.039 22.066-52 3.6773-9.35 7.2522-17.9 7.9443-19 0.692-1.1 2.7257-5.825 4.5192-10.5s5.701-14.3 8.6833-21.39c5.8712-13.957 5.9941-14.904 1.5219-11.719-7.5359 5.3661-7.6163 3.4497-0.7433-17.724 2.9755-9.1667 8.1668-25.157 11.536-35.534 3.3695-10.377 8.8504-26.498 12.18-35.824 5.6766-15.902 5.9428-17.038 4.2774-18.256-1.6745-1.2244-1.5624-1.8917 1.9626-11.676 2.0562-5.7075 5.0366-14.503 6.6232-19.545 3.4716-11.034 13.202-37.794 20.484-56.332 2.9165-7.425 5.6305-14.625 6.0312-16s2.2021-5.65 4.0033-9.5c1.8011-3.85 5.1191-11.153 7.3734-16.229 45.843-103.22 119.4-203.62 202.34-276.17 11.725-10.256 11.725-10.256 25-3.6998 52.484 25.921 113.78 0.6268 113.78-46.954 0-3.2056 0.8658-3.1442 14.5 1.0285 86.352 26.428 160.88-74.081 111.12-149.85-47.576-72.445-160.76-53.452-180.57 30.301-2.1371 9.0362-2.8964 10.041-7.6083 10.064-14.267 0.072 1.0023-85.57 21.64-121.37 12.154-21.084 17.378-29.391 23.988-38.148 127.63-169.06 429.91-135.35 505.93 56.428 11.411 28.788 22.071 90.04 17.666 101.52-2.1016 5.4767-9.9568 1.4092-11.8-6.1101-22.72-92.685-148.28-106.67-187.87-20.925-35.187 76.215 36.494 160.53 118 138.79 13.071-3.4864 12.283-3.7436 14.413 4.7009 7.6822 30.453 33.096 51.556 63.509 52.738 13.409 0.521 13.678 2.1457 12.834 77.656-0.4347 38.923-0.403 38.797-7.3383 29.055-61.556-86.472-242.56-85.472-410.77 2.271-18.564 9.6833-18.811 9.9152-15.581 14.628 9.554 13.938 22.692 17.806 35.329 10.4 5.654-3.3135 5.8269-2.4179 1.3557 7.0229-13.38 28.251 8.9712 56.34 32.804 41.226 5.9116-3.749 6.0243-3.5768 3.3724 5.154-10.974 36.131 33.708 62.931 51.013 30.596 2.3529-4.3965 2.9451-3.007 2.9249 6.8621-0.075 36.696 32.498 53.114 51.264 25.838 3.3019-4.7992 3.3019-4.7992 4.015-1.8069 4.8601 20.395 7.6283 26.254 16.773 35.5 24.198 24.465 65.005 8.2386 76.592-30.456 1.5465-5.1644 2.4465-5.2583 5.6743-0.5925 18.207 26.318 56.964-2.2725 54.508-40.209-0.5783-8.9361-0.076-9.2925 5.0619-3.5937 16.967 18.818 43.277 1.0899 42.062-28.342-0.3354-8.1239-0.045-8.4776 4.8133-5.8734 17.752 9.5147 32.469-10.933 27.999-38.902-0.873-5.4615-0.873-5.4615 2.7848-2.25 3.94 3.4594 7.5959 4.112 9.5881 1.7116 2.6539-3.1978 3.1849-1.4741 2.5415 8.25-9.7246 146.97-58.985 251.18-164.05 347.04-9.1415 8.3412-7.4233 7.844 7.6177-2.2046 5.836-3.899 14.699-9.564 19.696-12.589s26.772-16.872 48.389-30.771c21.617-13.899 42.004-26.996 45.304-29.104 3.3-2.1081 20.625-13.29 38.5-24.85s40.15-25.941 49.5-31.959c49.178-31.656 80.189-51.813 81.75-53.139 5.4772-4.6516 2.0356-650.75-3.5-657.07-8.2073-9.3673-26.628-29.014-59.75-63.726-16.775-17.58-34.11-35.792-38.523-40.471-8.0232-8.5068-8.0232-8.5068-30-9.7562-47.075-2.6763-80.389-5.3588-81.972-6.6005-1.5344-1.204 5.0806-43.541 7.1221-45.583 0.7768-0.7768 5.4729-0.79452 16.48-0.0622 34.17 2.2736 37.893 2.4055 37.893 1.3427 0-0.57601-2.859-5.2562-6.3533-10.4-17.633-25.959-33.335-56.824-43.724-85.946-4.7592-13.342-12.088-39.831-11.35-41.024 1.4307-2.3149 50.422-1.0097 51.324 1.3673 0.4695 1.2375 3.4005 10.125 6.5134 19.75 18.142 56.095 43.012 92.377 115.5 168.5 14.665 15.4 29.787 31.375 33.605 35.5 3.818 4.125 7.2925 7.6512 7.7211 7.836 0.4285 0.18481 0.7681-51.985 0.7547-115.93-0.014-63.948 0.3462-116.64 0.7992-117.09s30.498-0.70788 66.766-0.56639c65.943 0.25726 65.943 0.25726 66.196 176.51 0.139 96.938 0.6099 176.25 1.0464 176.25s7.7255-10.912 16.198-24.25 22.656-35.5 31.519-49.25 21.015-32.762 27.005-42.25c11.689-18.514 12.157-18.934 15.632-14 1.2589 1.7875 7.7935 10.328 14.521 18.978s12.666 16.538 13.195 17.528c0.7732 1.4447-1.4429 5.5395-11.242 20.772-13.582 21.114-37.845 59.806-59.866 95.472-24.096 39.025-37.192 60.077-42.613 68.5-5.1489 8-5.1489 8-5.1491 586.75-1e-4 462.28-0.2516 578.77-1.2501 578.85-0.6875 0.054-30.275 0.046-65.75-0.019-35.475-0.064-65.062-0.108-65.75-0.098-0.9968 0.015-1.25-51.826-1.25-255.92 0-140.77-0.3775-256.17-0.8389-256.46-0.7916-0.4892-19.189 11.029-71.161 44.553-24.17 15.591-63.34 40.972-71.5 46.33-7.1104 4.6694-62.815 40.456-70 44.971-3.3 2.0735-8.25 5.4767-11 7.5628-5.0147 3.804-24.685 16.507-75 48.435-14.85 9.4233-33.075 21.082-40.5 25.909-62.659 40.733-86.221 55.62-87.134 55.056-0.4422-0.2733-0.7946-5.1067-0.7829-10.741 0.038-18.194-6.3707-32.978-20.333-46.908-8.2267-8.2076-8.624-8.7679-6.2168-8.7679 5.693 0 18.956 10.022 27.313 20.638 15.635 19.862 17.78 20.527 14.073 4.3624-6.6293-28.912-31.482-45.5-68.17-45.5-23.079 0-25.895 3.269 25.75-29.895 80.978-52.001 83.922-53.605 98.379-53.605 39.29 0 59.181 32.374 46.543 75.75-2.1615 7.4187 9.8763 0.084 14.264-8.6911 11.094-22.189 4.0504-51.089-17.27-70.853-9.7607-9.0485-9.6697-10.389 0.4956-7.3011 21.808 6.624 31.824 21.603 34.104 51.005 1.8981 24.47 11.656 20.076 13.572-6.1126 1.3375-18.284-5.2909-34.662-19.819-48.97-9.6251-9.4795-9.532-10.755 0.4184-5.7316 6.7157 3.3901 15.444 11.612 25.836 24.336 8.2564 10.11 9.5061 10.617 8.5587 3.4748-3.0695-23.138-22.687-44.02-45.082-47.986-3.3-0.5844-6.8058-1.4957-7.7907-2.0249-2.1267-1.143-1.046-1.7585-13.884 7.9067-65.978 49.671-156.39 85.606-248.33 98.699-9.9 1.4099-18.45 2.704-19 2.8758-0.55 0.1717 2.2874 2.4451 6.3053 5.052 9.1197 5.9172 9.3588 5.4892-6.8094 12.186-17.603 7.291-20.598 8.1612-22.789 6.6214-25.092-17.64-90.232-32.545-99.914-22.862-0.5724 0.5724-43.246 130.08-61.329 186.13-7.8082 24.2-14.707 44.49-15.33 45.088-1.1758 1.1288-47.463 18.55-53.634 20.186-5.14 1.3629-29.17 10.334-31.5 11.76-2.224 1.3609-33.366 12.646-41.685 15.106-5.8524 1.7303-56.346 19.855-75.315 27.034-50.511 19.117-112.5 40.338-112.5 38.513zm539.5-458.21c5.4552-2.6053 18.363-13.445 17.289-14.519-0.2462-0.2463-3.7329 1.2378-7.748 3.298-17.758 9.1116-33.157 2.0922-34.784-15.856-0.9846-10.858-5.0341-3.5166-5.1802 9.3912-0.1147 10.13 5.2357 18.647 12.75 20.298 1.4701 0.323 3.1229 0.7363 3.6729 0.9185 2.1961 0.7276 8.3127-0.8153 14-3.5313zm171.07-19.865c5.7465-2.6101 10.91-7.4372 16.556-15.477 6.444-9.1759 6.2165-11.056-0.5856-4.8397-16.408 14.996-33.09 12.711-40.466-5.5429-1.9229-4.7591-3.0705-3.9775-3.0705 2.091 0 19.261 12.934 30.414 27.565 23.769zm-85.652-4.3424c2.4271-1.1568 7.1903-4.8402 10.585-8.1853 9.69-9.5487 12.997-15.947 4.9061-9.4939-17.688 14.109-36.691 9.534-40.863-9.838-1.0283-4.7748-2.2222-3.9672-2.957 2-2.5834 20.981 11.407 33.583 28.329 25.517zm-135.27-17.45c5.1808-2.5531 15.359-10.73 15.359-12.339 0-0.477-2.5875 0.3266-5.75 1.7857-17.453 8.0522-31.708 0.8471-34.706-17.541-1.2229-7.5017-1.2941-7.6368-2.4901-4.7226-9.9028 24.128 6.2435 43.335 27.587 32.817zm93.57-27.523c12.286-6.5196 20.313-17.711 8.4137-11.731-17.588 8.8392-35.418 1.5494-35.618-14.563-0.061-4.9244-1.6732-6.4962-3.042-2.9661-8.292 21.385 10.616 39.676 30.246 29.26zm107.6-13.946c6.7225-3.2544 22.789-20.577 20.867-22.499-0.281-0.2809-3.1232 1.6169-6.3161 4.2176-15.625 12.727-39.366 9.0046-39.366-6.1725 0-0.6949-0.4758-2.515-1.0574-4.0446-2.6515-6.974-3.9986 5.1442-1.5998 14.392 3.6375 14.023 15.288 20.005 27.472 14.107zm87.005-0.7558c7.0133-3.5779 23.14-23.465 20.87-25.735-0.2447-0.2447-2.8217 2.0456-5.7268 5.0895-14.993 15.709-32.422 14.015-40.584-3.9458-1.8176-4-1.8176-4-2.1688 1-1.4059 20.02 12.059 31.525 27.61 23.592zm-212.73-36.274c5.5456-2.5389 17.948-13.084 16.782-14.269-0.3462-0.3522-3.4962 0.8429-7 2.6557-17.367 8.9857-33.364 1.3148-35.538-17.042-1.2096-10.213-4.8301-0.9685-4.1732 10.656 0.9859 17.448 14.016 25.284 29.928 17.999zm197.49-19.311c5.1851-3.0387 13.223-11.891 16.853-18.56 3.3597-6.1729 2.8207-6.1734-4.2728 0-16.174 14.068-32.639 11.558-38.847-5.9214-2.8433-8.0056-5.0538-5.2136-3.8302 4.8379 2.3151 19.018 15.966 27.929 30.097 19.648zm68.189-0.078c6.2649-3.1219 13.64-10.967 17.999-19.145 4.814-9.032 3.997-9.3603-4.0188-1.6151-14.853 14.352-28.836 13.637-37.173-1.9018-3.8968-7.2623-5.0072-7.2664-4.2709-0.015 2.0068 19.765 13.788 29.493 27.463 22.678zm-189.48-8.4289c4.7113-2.3529 15.271-12.412 17.583-16.749 1.5873-2.9777 0.8506-2.8426-4.4742 0.821-20.374 14.018-33.53 9.0755-40.122-15.071-0.9294-3.4047-2.4132 2.2924-2.4409 9.3723-0.078 19.811 13.349 29.67 29.454 21.626zm-233.69-197.59c5.6042-2.8354 16.315-11.763 15.336-12.782-0.3112-0.3238-3.6218 1.034-7.3571 3.0174-17.362 9.2191-30.194 4.1739-34.682-13.636-1.9929-7.9086-3.8952-5.4219-3.8952 5.0919 0 18.175 14.14 26.636 30.598 18.309zm-80.53-5.0186c6.2111-1.8443 13.858-6.6341 18.878-11.824 4.0247-4.1616 3.0461-4.5259-3.0702-1.143-20.039 11.084-36.223 4.3453-37.661-15.681-0.5733-7.9862-2.3883-7.8221-4.1462 0.3748-4.4069 20.549 7.6945 33.708 26 28.273zm354.53-174.64c12.121-24.268 29.924-41.455 55.806-53.874 10.43-5.0048 10.404-3.8626 0.431-18.989-35.614-54.015-71.648-59.852-107.5-17.413-10.399 12.31-22.862 30.415-21.696 31.515 0.4735 0.4465 5.6581 3.2799 11.521 6.2964 25.488 13.113 40.804 28.284 52.462 51.964 4.6515 9.4476 4.508 9.4396 8.9731 0.5zm27.435-65.156c-2.6823-8.1276-1.8616-19.094 1.429-19.094 6.798 0 9.917 12.496 4.8235 19.324-2.9535 3.9596-4.8934 3.8882-6.2525-0.23zm-67.932-0.196c-5.5972-7.1156-1.5984-22.446 5.1767-19.846 2.8964 1.1115 3.0261 16.914 0.1766 21.525-1.0314 1.6689-3.273 0.966-5.3533-1.6788zm78.538-83.648c12.414-12.656 16.889-20.664 22.247-39.814 2.0284-7.2499 3.2888-38.936 1.5488-38.936-0.3121 0-3.0803 2.0469-6.1514 4.5486-6.9693 5.6771-7.531 5.0935-5.8319-6.0588 3.5597-23.365 3.7228-23.032-7.1113-14.49-11.11 8.7597-10.755 9.0065-13.252-9.2307-1.9999-14.608-1.989-14.602-10.495-5.791-8.3938 8.6945-8.4571 8.6912-11.95-0.6275-4.3764-11.674-10.425-24.351-11.62-24.351-1.2154 0-1.0602-0.34349-8.3375 18.453-6.5194 16.839-5.5637 16.429-15.12 6.4856-4.2862-4.46-8.1322-7.7333-8.5465-7.2739-0.6091 0.67517-3.0516 23.358-3.0243 28.085 0.018 3.0866-8.8543-1.8259-17.162-9.5024-5.0276-4.6459-5.1745-3.4463-2.2181 18.118 1.7995 13.125 1.8365 13.073-5.2038 7.2772-7.4706-6.1501-7.4141-6.1931-7.3785 5.6076 0.091 30.217 9.8432 54.382 28.316 70.163 5.6261 4.8065 5.6261 4.8065 14.89-3.6249 25.682-23.375 23.713-23.37 47.724-0.1039 11.45 11.095 8.9776 10.954 18.677 1.0658zm-318.07 998.15c-36.613-55.034-38.11-44.258 10.45-75.182 22.268-14.18 50.559-32.406 62.868-40.5 50.158-32.984 68.402-39.449 99.567-35.286 40.281 5.3817 58.87 28.498 53.531 66.568-1.2886 9.188 4.2757 4.8667-54.979 42.697-9.075 5.7938-33.6 21.461-54.5 34.815-63.125 40.335-83.39 52.988-84.863 52.988-0.7725 0-15.206-20.746-32.075-46.101zm243.01-93.149c3.6025-20.415-3.5555-40.719-20.303-57.59-8.0256-8.0849-10.472-11.16-8.8766-11.16 27.736 0 56.838 54.279 37.105 69.207-6.9107 5.2281-8.9087 5.1128-7.9258-0.4573zm119.13-473.43c-0.6917-1.1191 1.7873-35.146 2.6212-35.98 0.3471-0.3471 0.9075 0.089 1.2452 0.9692 2.5861 6.7391-1.041 39.582-3.8664 35.01zm67.489-44.363c-4.8353-4.5048-8.1894-15.021-8.1894-25.678 0-7.3616 0.6359-6.4513 3.4598 4.9529 2.4286 9.8077 5.2609 16.456 7.9671 18.702 1.9095 1.5848 2.069 4.0607 0.2617 4.0607-0.7213 0-2.2959-0.9172-3.4992-2.0382zm-135.52-8.6285c-1.3725-1.3725-0.5965-3.3333 1.3191-3.3333 3.0585 0 6.5733-6.3424 9.8898-17.846 3.4205-11.864 4.1244-13.122 4.1244-7.37 0 14.988-10.096 33.786-15.333 28.549zm63.508-16.623c-2.0825-2.5093-3.1253-10.368-3.0801-23.211 0.083-23.573 2.2799-21.466 3.8614 3.7035 0.5081 8.0869 1.4008 15.595 1.9838 16.684 2.0176 3.7698-0.1461 5.9786-2.7651 2.8229zm118.28-18.183c-2.7713-3.6333-6.7254-14.845-7.945-22.528-1.0308-6.4927 0.756-4.1678 4.3928 5.7158 3.064 8.327 5.7845 13.951 8.7231 18.034 2.8904 4.0157-2.07 2.8435-5.1709-1.222zm-231.79-2.1947c-1.1354-1.1353-0.7365-2.3333 0.7768-2.3333 2.2532 0 7.6434-7.0634 12.349-16.182 4.1623-8.0663 4.2787-8.1895 3.8455-4.0707-1.2086 11.493-12.73 26.827-16.971 22.586zm271.08-22.083c-3.1801-3.3245-8.0207-13.572-7.5545-15.993 0.2312-1.2008 1.228-0.1894 3.2029 3.25 1.5769 2.7463 4.6088 7.099 6.7376 9.6727 5.3327 6.4474 3.3209 9.0365-2.386 3.0706zm-408.74-225.24c-66.348-8.1631-88.753-96.323-34.822-137.02 33.561-25.324 85.177-15.026 106.68 21.282 32.795 55.387-9.4399 123.41-71.855 115.74zm11-98.012c5.3586-5.3586-2.5484-13.434-8.1713-8.345-3.7229 3.3691-1.1428 10.345 3.8263 10.345 1.2898 0 3.245-0.9 4.345-2zm36.039-2.0198c9.2952-4.742 12.583-17.91 6.6933-26.809-10.034-15.163-34.802-7.9992-34.71 10.039 0.074 14.375 15.092 23.364 28.017 16.77zm265.23 98.014c-55.427-12.039-75.079-84.644-34.442-127.25 27.901-29.251 75.852-29.299 104.42-0.1044 53.539 54.707 4.7053 143.57-69.981 127.35zm17.336-94.76c4.195-2.8011 3.4724-9.6764-1.1387-10.834-4.2194-1.059-7.4616 1.0044-7.4616 4.7488 0 5.2031 4.8169 8.6111 8.6003 6.0849zm34.941-3.1144c18.342-8.3317 12.59-35.12-7.5414-35.12-16.133 0-24.55 17.874-14.205 30.168 3.1853 3.7855 9.4691 6.7884 14.205 6.7884 1.925 0 5.3186-0.8261 7.5414-1.8358z" fill="#a57662"/><path d="m3980.6 2215.2c0-0.9301 14.842-35.636 20.02-46.815 2.293-4.95 7.9894-17.775 12.659-28.5s12.471-28.5 17.338-39.5c4.8664-11 11.974-27.2 15.796-36 3.8212-8.8 10.864-24.775 15.652-35.5s12.449-28.05 17.027-38.5 11.965-27.302 16.417-37.449c4.452-10.147 7.7565-18.732 7.3435-19.079-0.4131-0.3466-5.4761-2.5391-11.251-4.8722-20.881-8.4357-36-15.48-36-16.773 0-1.5763 9.4697-24.736 25.512-62.396 11.744-27.569 11.744-27.569 16.866-30.434 24.225-13.549 123.66-83.669 161.66-114 9.6475-7.7 19.885-15.78 22.75-17.956 7.7585-5.8912 6.6694-7.1847-3.0033-3.5669-11.438 4.2782-21.193 6.148-35.166 6.7407-13.878 0.5886-13.878 0.5886-20.185 6.1852-31.164 27.653-42.156 36.819-86.466 72.096-37.804 30.098-55.166 43.4-97.471 74.676-51.37 37.978-67.564 49.02-92.5 63.069-6.875 3.8734-19.475 11.084-28 16.024s-15.663 8.5473-15.863 8.0171c-0.6222-1.6521 13.253-30.99 15.363-32.484 3.9505-2.7966 35.623-22.948 47.192-30.026 16.299-9.9711 67.854-44.004 84.733-55.934 7.6586-5.4132 20.259-14.123 28-19.356 7.7414-5.2323 18.35-12.626 23.575-16.431 5.225-3.8046 18.275-13.251 29-20.992 21.151-15.266 27.921-20.411 62-47.118 26.273-20.59 25.403-19.589 19.502-22.445-6.5821-3.1864-11.243-9.1235-12.7-16.178-1.4873-7.2007-2.0558-7.2049-10.031-0.073-26.181 23.412-56.986 48.352-98.608 79.831-14.485 10.955-29.785 22.546-34 25.758s-14.414 10.672-22.664 16.579c-8.25 5.9069-19.275 13.832-24.5 17.612-14.165 10.246-72.989 49.47-74.191 49.47-3.5566 0 9.7445-29.695 14.691-32.798 2.2-1.3801 8.275-5.3053 13.5-8.7225s17.812-11.499 27.971-17.959c10.159-6.4602 25.169-16.458 33.357-22.218 8.1874-5.7597 19.226-13.331 24.529-16.826 5.3038-3.4945 13.965-9.4188 19.248-13.165 5.2824-3.7464 17.851-12.662 27.931-19.812 20.399-14.47 38.898-28.216 52.465-38.984 4.95-3.929 12.498-9.728 16.774-12.887 8.8794-6.5602 9.0635-8.1379 0.8464-7.2534-16.024 1.7248-31.187-4.7251-36.736-15.626-2.9341-5.7641-2.9977-5.7693-7.9312-0.6413-2.1742 2.2598-10.703 9.7729-18.953 16.696s-18.831 15.986-23.514 20.141c-4.6827 4.1549-12.783 11.014-18 15.243-5.2174 4.2288-17.136 13.91-26.486 21.514s-23.075 18.515-30.5 24.248-18.283 14.147-24.13 18.699c-5.8462 4.5518-12.371 9.2816-14.5 10.511-2.1288 1.229-5.3452 3.3336-7.1477 4.6768-4.5875 3.4186-4.7002 2.6774-1.2363-8.1362 3.0617-9.5577 3.0617-9.5577 9.2876-13.788 3.4242-2.3266 11.626-8.3464 18.226-13.378 43.239-32.96 45.164-34.469 69.342-54.325 4.2122-3.4593 12.158-9.8211 17.658-14.137 5.5-4.3161 13.046-10.486 16.769-13.71 3.7227-3.2245 13.916-11.938 22.653-19.363 20.081-17.067 23.039-21.955 9.9521-16.447-26.49 11.15-53.41 7.4317-59.047-8.1548-1.9957-5.519-1.858-5.6044-25.731 15.964-20.05 18.115-49.096 39.893-49.096 36.812 0-9.6001 5.7136-17.251 23.876-31.971 44.281-35.889 48.94-40.088 50.54-45.548 1.8654-6.3635 2.2818-6.0841-8.694-5.8336-20.636 0.4709-33.934-10.645-27.597-23.068 2.1445-4.2036 2.1445-4.2036 3.7594-1.8073 12.863 19.087 30.056 20.156 54.5 3.3865 9.9057-6.7955 11.011-6.4492 5.089 1.5949-39.376 53.489-4.0237 74.262 58.007 34.084 13.659-8.847 15.6-9.3453 10.732-2.7553-21.96 29.733-24.148 43.174-8.2975 50.984 14.268 7.0308 40.037 0.8751 68.896-16.458 10.353-6.2178 10.691-5.8637 3.7965 3.9754-26.992 38.52 16.38 51.225 77.924 22.827 51.894-23.945 116.17-107.69 137.84-179.59 6.8161-22.617 6.6695-22.254 6.0639-15-6.6695 79.891-76.751 197.67-153.88 258.62-4.6931 3.7084-4.9504 3.0668 6.8917 17.181 51.108 60.914 122.03 88.188 202 77.682 51.633-6.7834 114.62-29.239 155.88-55.568 32.535-20.764 37.91-24.367 47.679-31.962 54.847-42.638 98.815-95.37 129.62-155.45 11.826-23.067 24.138-50.973 28.677-65 3.3814-10.449 16.671-54.181 20.36-67 4.5172-15.696 0.3998 22.639-5.6925 53-24.014 119.67-72.459 200.18-169.46 281.62-14.129 11.862-23.916 18.521-52.002 35.382-59.857 35.934-142.38 63.392-215.25 71.623-12.752 1.4403-13.176 2.61-3.1816 8.7769 8.2738 5.1056 8.5934 4.5505-6.0684 10.54-22.346 9.1291-14.522 10.932-51-11.75-5.5-3.4198-5.5-3.4198-28-4.0798-12.375-0.363-27.225-0.9351-33.001-1.2714-10.501-0.6113-10.501-0.6113-26.75 48.774-8.9374 27.162-20.925 63.56-26.638 80.885s-15.443 47.25-21.62 66.5c-12.706 39.593-10.926 36.28-21.491 40.015-4.4 1.5554-15.392 5.6759-24.426 9.1566-17.762 6.8433-19.694 7.3197-18.571 4.5786 0.3944-0.9625 6.4576-19.075 13.474-40.25 7.0162-21.175 17.542-51.668 23.39-67.762 11.201-30.825 11.675-32.624 8.8832-33.695-0.9625-0.3692-5.5105-2.9344-10.107-5.7004-9.5926-5.773-9.0318-6.0016-12.654 5.1577-2.9207 8.9974-19.639 56.435-34.01 96.5-4.7346 13.2-11.279 31.638-14.544 40.972-7.142 20.422-5.4535 18.75-26.738 26.476-20.941 7.601-19.899 8.623-11.916-11.685 3.6239-9.2195 10.863-28.238 16.088-42.263 8.8328-23.712 18.898-50.389 35.652-94.5 3.7603-9.9 8.8639-23.104 11.341-29.342 2.4773-6.238 4.2696-11.863 3.9828-12.5-1.203-2.6723-45.566-36.837-46.553-35.851-0.5568 0.5568-4.2677 8.3655-8.2463 17.353-13.996 31.615-18.864 42.53-28.026 62.84-5.0859 11.275-15.792 35.35-23.792 53.5-8 18.15-20.024 45.375-26.721 60.5-6.6966 15.125-16.235 36.95-21.196 48.5s-9.5359 21.538-10.166 22.196c-1.8158 1.8965-36.645 13.89-36.645 12.618zm346.41-102.06c-13.054-19.662-26.81-40.367-30.57-46.01s-6.8293-10.593-6.8217-11c0.01-0.407 7.9951-5.7468 17.75-11.866 24.647-15.462 79.302-50.43 93.736-59.973 38.705-25.588 51.774-30.723 78-30.643 47.794 0.1452 73.091 26.627 64.544 67.564-1.3413 6.4245 0.684 4.8848-43.814 33.31-7.0016 4.4725-22.976 14.72-35.498 22.771-12.522 8.0518-25.572 16.369-29 18.482s-14.108 8.9165-23.732 15.118c-21.146 13.626-59.933 37.996-60.472 37.996-0.2136 0-11.069-16.088-24.122-35.75zm237.24-109.01c1.2715-17.913-6.2428-36.773-20.381-51.155-9.4779-9.6412-9.4341-9.523-2.6454-7.1323 20.38 7.1772 30.718 22.481 32.897 48.704 0.8397 10.101 0.3447 11.706-4.7489 15.396-5.6916 4.1231-5.8167 3.9811-5.1216-5.8126zm26.357-16.548c0-17.908-8.9697-38.559-21.542-49.598-4.6959-4.123-3.7884-5.0679 1.7472-1.8192 6.6585 3.9076 13.005 9.9516 19.37 18.447 14.826 19.788 18.847 20.365 14.986 2.1533-6.4359-30.363-31.985-48.161-69.312-48.284-8.3875-0.028-15.25-0.1285-15.25-0.224 0-0.095 5.5125-3.6715 12.25-7.9466 6.7375-4.2752 19.675-12.577 28.75-18.448 90.682-58.668 96.506-60.901 123.35-47.3 20.793 10.537 28.762 36.514 19.977 65.123-3.7805 12.311 10.01 8.4085 16.631-4.7067 10.947-21.686 4.9619-50.328-14.626-69.989-9.3813-9.4164-9.5655-10.006-2.3802-7.6197 20.454 6.7936 29.778 22.088 31.668 51.942 1.782 28.163 16.384 16.551 16.384-13.029 0-16.746-4.5191-28.115-16.752-42.145-6.7348-7.7243-6.8857-8.8251-0.6376-4.6526 5.4523 3.6411 10.718 8.8297 16.646 16.403 12.592 16.086 17.486 19.039 16.213 9.7816-3.5091-25.514-20.142-44.687-44.075-50.808-4.2531-1.0877-7.9324-2.1772-8.1762-2.421-0.5859-0.5859 37.499-25.609 40.993-26.934 1.4916-0.5655 2.883-0.8235 3.0921-0.5734 21.088 25.225 31.259 54.718 31.117 90.237-0.102 25.543 7.7007 17.949-66.747 64.961-9.8042 6.1912-28.278 18.007-41.053 26.257-12.775 8.25-32.302 20.85-43.393 28-11.091 7.15-25.917 16.725-32.947 21.278s-13.568 8.7313-14.531 9.2852c-1.6075 0.9251-1.75 0.3252-1.75-7.3682zm-292.12-471.01c-9.4607-3.5579-15.015-9.6232-17.187-18.769-1.1498-4.8401-3.5462-6.5859-5.2519-3.8261-12.579 20.353-54.527 9.723-56.261-14.257-0.4694-6.4888-0.6787-6.6413-5.3745-3.9146-30.068 17.459-56.4-2.2669-48.402-36.26 2.2711-9.6528 3.0948-8.2849 3.0948 5.1393 0 30.569 20.446 39.455 49.931 21.699 3.196-1.9245 5.9699-3.4991 6.1642-3.4991 0.1944 0 0.3375 4.4644 0.3182 9.9209-0.094 26.567 21.364 33.127 49.39 15.099 9.8532-6.3383 10.626-6.1952 10.688 1.9802 0.21 27.292 31.92 27.896 65.326 1.2432 8.0672-6.4363 9.1793-6.3176 3.8599 0.412-14.56 18.42-41.741 30.506-56.296 25.032zm586.62-131.01c-20.475-28.579-60.145-50.663-104.51-58.175-13.367-2.2637-14.145-2.4586-13.563-3.3994 0.2851-0.4614 2.891-1.1489 5.7909-1.5279 29.474-3.8515 63.863-15.558 97.272-33.112 20.713-10.883 19.189-15.346 19.298 56.538 0.069 45.404 0.035 45.716-4.2909 39.677zm-296.14-68.427c-5.589-7.4255-26.096-30.822-31.615-36.069-3.491-3.3193-3.491-3.3193-16.124 9.25-14.9 14.824-16.312 15.431-13.542 5.8193 3.7475-13.006 7.9296-31.415 7.3498-32.354-0.3219-0.5209-4.1612 2.2091-8.5317 6.0666-25.568 22.567-40.248 28.274-30.753 11.955 15.02-25.816 15.228-27.129 3.0992-19.627-23.005 14.23-26.65 14.678-17.966 2.2087 7.7639-11.149 12.716-19.184 12.716-20.632 0-1.3865-1.3902-0.9526-12.5 3.9019-19.681 8.5996-32.513 11.125-25.499 5.0177 14.278-12.431 21.228-19.313 19.786-19.591-0.8783-0.1691-6.3097 0.3923-12.07 1.2476-24.195 3.5926-48.394 0.9835-71.034-7.6584-10.181-3.8863-9.2198-4.4553 2.9756-1.7611 74.907 16.549 142.04-55.709 118.71-127.77-31.434-97.104-168.41-93.236-194.49 5.4918-2.1813 8.2572-2.1813 8.2572-6.0299 8.2572-11.083 0 0.024-70.455 17.128-108.65 3.7624-8.4016 17.696-14.375 49.024-21.018 59.296-12.573 131.2 29.436 150.57 87.967 9.5137 28.747 27.966 50.075 35.988 41.596 3.7093-3.9206 22.53-20.255 25.827-22.416 3.6518-2.3928 13.273 4.3731 29.079 20.449 7.5616 7.6909 7.6121 7.6845 17.175-2.1792 12.29-12.676 14.582-16.522 20.934-35.12 21.013-61.523 88.203-101.72 150.56-90.068 13.788 2.5757 41.975 10.919 46.649 13.807 4.754 2.9381 18.167 45.805 21.787 69.631 5.2355 34.456-0.2925 63.756-7.1546 37.922-26.396-99.374-163.88-103.01-194.79-5.1457-22.916 72.541 57.224 152.93 126.11 126.49 1.031-0.3956 1.3457-0.2122 0.893 0.5203-4.5732 7.3995-51.116 13.399-74.772 9.6377-14.992-2.3834-15.008-2.292-1.8819 10.44 8.84 8.5745 10.976 11.131 9.3017 11.131-3.223 0-17.487-4.6903-28.082-9.2337-12.31-5.279-11.928-2.1884 2.3962 19.368 4.0884 6.1527 5.2592 8.8655 3.8261 8.8655-0.7158 0-19.072-10.548-25.908-14.889-2.7448-1.7425-5.1315-2.7454-5.3037-2.2287-0.4081 1.2241 8.8966 19.745 13.898 27.665 6.0507 9.5807 5.6032 10.118-4.0082 4.8093-9.0189-4.9813-18.136-11.525-27.284-19.584-6.6588-5.8662-9.8125-7.9094-9.8125-6.3572 0 1.8685 6.5212 28.787 8.0513 33.234 2.3113 6.7178 2.2729 6.3508 0.664 6.3508-0.7067 0-7.1192-5.8494-14.25-12.999-7.1309-7.1493-13.274-12.887-13.652-12.75-1.5644 0.5662-24.566 26.001-32.102 35.499-9.6443 12.154-8.9486 11.995-15.343 3.5zm11.478-62.319c13.196-25.101 27.728-39.23 53.052-51.581 14.424-7.0347 14.205-5.739 3.6368-21.456-42.934-63.853-81.687-62.936-126.41 2.9913-8.2703 12.192-8.3424 11.701 2.4309 16.553 25.556 11.51 43.43 28.569 55.915 53.369 5.5334 10.99 5.6608 10.992 11.374 0.124zm27.73-65.593c-1.3421-3.4976-1.8921-17.024-0.7216-17.748 2.4245-1.4984 6.1464 4.0349 6.1308 9.1146-0.022 7.1306-3.7205 13.034-5.4092 8.6333zm-67.185-0.1295c-4.6225-2.9986-4.3211-15.87 0.4141-17.687 2.5729-0.9873 3.3353 1.6308 2.7472 9.4334-0.5784 7.6758-1.2698 9.4809-3.1613 8.2538zm-110.58 5.3219c-10.122-2.7878-14.001-5.5027-27.313-19.118-19.688-20.136-34.907-24.913-48.654-15.274-3.6321 2.5468-3.6457 2.5396-6.3609-3.3912-28.953-63.242 35.686-129.12 97.864-99.745 50.758 23.982 56.222 99.16 9.4873 130.54-11.506 7.726-16.885 9.2277-25.024 6.9861zm-13.127-91.704c2.9927-2.8116 2.9407-6.2903-0.1401-9.3712-4.5818-4.5817-11.546-1.8401-11.546 4.5455 0 6.2334 7.0764 9.1557 11.686 4.8257zm33.999-0.8893c9.508-3.5924 14.764-16.14 10.767-25.705-8.4403-20.2-38.452-14.446-38.452 7.3734 0 13.43 14.771 23.211 27.685 18.332zm258.82 93.135c-51.437-12.746-63.276-96.853-18.395-130.69 60.265-45.437 141.74 21.625 111.22 91.544-3.6175 8.2866-3.8545 8.4287-8.4776 5.0798-13.191-9.5556-31.064-4.222-46.221 13.793-11.48 13.645-28.453 22.671-38.125 20.275zm27.046-92.526c2.9986-2.9986 3.1037-5.4504 0.3819-8.9106-4.0892-5.1986-11.927-2.5567-11.927 4.0202 0 6.7252 6.8213 9.6146 11.546 4.8904zm36.241-2.7855c10.631-7.0353 11.917-21.529 2.6976-30.408-17.745-17.092-43.609 6.4251-28.892 26.271 5.6472 7.6152 17.993 9.5651 26.195 4.1373z" fill="#58362d"/></g></g></svg>
