<?xml version="1.0" encoding="UTF-8" standalone="no"?>
<!-- Created with Inkscape (http://www.inkscape.org/) -->

<svg
   width="1616.004"
   height="1616.0043"
   viewBox="0 0 1616.0041 1616.0043"
   version="1.1"
   id="svg1"
   xml:space="preserve"
   inkscape:version="1.4.2 (ebf0e940, 2025-05-08)"
   sodipodi:docname="owl inkscape.svg"
   xmlns:inkscape="http://www.inkscape.org/namespaces/inkscape"
   xmlns:sodipodi="http://sodipodi.sourceforge.net/DTD/sodipodi-0.dtd"
   xmlns="http://www.w3.org/2000/svg"
   xmlns:svg="http://www.w3.org/2000/svg"><sodipodi:namedview
     id="namedview1"
     pagecolor="#ffffff"
     bordercolor="#000000"
     borderopacity="0.25"
     inkscape:showpageshadow="2"
     inkscape:pageopacity="0.0"
     inkscape:pagecheckerboard="0"
     inkscape:deskcolor="#d1d1d1"
     inkscape:document-units="px"
     showguides="false"
     inkscape:zoom="0.28012942"
     inkscape:cx="535.46678"
     inkscape:cy="947.7762"
     inkscape:window-width="1368"
     inkscape:window-height="1024"
     inkscape:window-x="215"
     inkscape:window-y="43"
     inkscape:window-maximized="0"
     inkscape:current-layer="layer1" /><defs
     id="defs1" /><g
     inkscape:label="Layer 1"
     inkscape:groupmode="layer"
     id="layer1"
     transform="translate(-657.07325,-482.67346)"><rect
       style="fill:#fce186;fill-opacity:1"
       id="rect402893"
       width="1677.7959"
       height="1702.7844"
       x="624.94525"
       y="436.26633" /><ellipse
       style="fill:#fdfdfd;fill-opacity:1"
       id="path402893"
       cx="1476.4648"
       cy="1006.0178"
       rx="284.98746"
       ry="286.07938" /><g
       id="g402890"
       transform="translate(-3116.5799,-142.00291)"><path
         style="fill:#e8ccb6"
         d="m 3916.1236,2239.7145 c -0.7861,-2.0486 15.3928,-44.0099 25.774,-66.8468 3.181,-6.9978 17.5108,-40.8386 22.0192,-52 1.8884,-4.675 6.1542,-14.8 9.4796,-22.5 3.3254,-7.7 8.0634,-18.95 10.5289,-25 6.3385,-15.5538 8.5541,-20.7414 9.7263,-22.773 0.5626,-0.9751 3.5422,-7.9501 6.6212,-15.5 7.6913,-18.8591 9.6595,-23.6305 13.0871,-31.727 1.6299,-3.85 4.2405,-10.15 5.8014,-14 3.1905,-7.8695 10.1896,-24.5072 22.7166,-54 4.6723,-11 11.2874,-26.75 14.7002,-35 3.4129,-8.25 7.4954,-17.925 9.0722,-21.5 1.5768,-3.575 4.6934,-11.1253 6.9259,-16.7783 2.2324,-5.6531 5.8575,-14.1353 8.0558,-18.8493 4.2866,-9.1922 4.7885,-11.3724 2.6181,-11.3724 -1.4184,0 -11.6196,5.8467 -14.5029,8.3121 -0.89,0.7612 -2.2933,1.6285 -3.1183,1.9276 -1.6408,0.5947 -27.1795,15.3765 -41.5,24.0202 -20.5259,12.3892 -31.5928,18.7729 -42,24.2269 -6.05,3.1705 -14.825,8.0357 -19.5,10.8114 -4.675,2.7758 -12.775,7.594 -18,10.707 -50.0226,29.8038 -50.2256,29.7366 -31.7572,-10.5052 10.9861,-23.9382 16.7934,-37.385 24.8326,-57.5 4.5062,-11.275 11.2827,-27.803 15.0589,-36.7288 7.9672,-18.8326 8.0219,-19.1186 3.6157,-18.9187 -4.2147,0.1912 -4.1297,-1.6111 0.8414,-17.8525 2.0201,-6.6 5.0063,-16.5 6.636,-22 1.6297,-5.5 3.7935,-12.25 4.8085,-15 2.9825,-8.0807 14.0784,-40.4929 16.0345,-46.8384 1.0917,-3.5415 1.4982,-6.6535 1.0333,-7.9104 -0.8693,-2.35 0.6186,-8.9958 4.3101,-19.2512 1.3858,-3.85 6.3903,-18.2087 11.1211,-31.9082 10.0353,-29.0607 12.5111,-35.7674 16.461,-44.5918 1.6002,-3.575 6.5872,-15.275 11.0821,-26 4.495,-10.725 10.4191,-24 13.1647,-29.5 10.7038,-21.4419 14.0587,-28.0378 14.7504,-29 0.3954,-0.55 2.0653,-3.475 3.711,-6.5 45.3898,-83.4338 103.2732,-157.2017 170.0531,-216.7196 11.0088,-9.8117 16.4462,-15.3434 16.8429,-17.1349 1.2102,-5.4654 1.7929,-7.0357 8.5892,-23.1455 25.2931,-59.9543 44.3974,-106.0158 47.4895,-114.5 2.1852,-5.9957 2.67,-9.5272 3.3793,-24.6139 7.9592,-169.29549 165.2952,-280.77448 349.8106,-247.8551 135.0122,24.08752 227.084,126.77751 227.1279,253.3215 0,10.4803 2.1469,18.8394 9.0118,35.1475 1.6207,3.85 5.612,13.75 8.8697,22 3.2576,8.25 7.5804,18.825 9.6061,23.5 2.0257,4.675 6.8205,16.375 10.655,26 3.8344,9.625 8.0361,19.975 9.337,23 10.1162,23.5232 11.4196,28.4176 8.4183,31.6123 -4.8367,5.1484 -34.0071,18.3877 -40.5141,18.3877 -6.6781,0 -7.7166,2.056 -6.9346,13.7303 1.0002,14.9301 0.7209,87.0089 -0.4059,104.7697 -1.6869,26.5911 -4.9696,67.5773 -5.4783,68.4004 -0.2718,0.4397 -1.3994,6.6045 -2.5058,13.6996 -11.137,71.419 -32.1528,128.9666 -68.9113,188.7007 -14.631,23.7758 -54.2554,71.3134 -73.3181,87.96 -8.5084,7.4301 -3.3334,5.6881 10.3787,-3.4935 6.7622,-4.528 15.6699,-10.2816 19.7949,-12.7858 6.0972,-3.7015 51.0468,-32.505 72.5,-46.4578 10.7361,-6.9825 79.7942,-51.6095 93.7156,-60.5612 8.0935,-5.2043 18.5618,-11.9374 23.2628,-14.9624 28.0979,-18.0805 50.2402,-32.7308 51.7651,-34.25 2.2033,-2.1952 2.7983,-645.93485 0.6009,-650.04081 -1.3825,-2.58319 -31.4971,-34.95538 -63.4304,-68.18562 -12.6973,-13.21298 -27.9973,-29.32777 -34,-35.81066 -6.0027,-6.48289 -11.814,-11.9908 -12.914,-12.23981 -1.1,-0.24901 -14.15,-1.12413 -29,-1.94472 -28.2587,-1.56153 -62.8228,-4.18591 -70.5,-5.35292 -5.9634,-0.90648 -6.0279,-2.06385 -1.5626,-28.03555 4.1068,-23.887 3.8726,-23.44313 11.9857,-22.72161 43.5696,3.87475 46.1465,3.48472 40.0136,-6.05638 -25.5036,-39.67602 -41.5318,-74.5956 -51.447,-112.08424 -1.7133,-6.47774 -3.3271,-12.51779 -3.5863,-13.42233 -1.2546,-4.37839 1.3523,-4.85617 26.418,-4.84172 30.8441,0.0178 26.9103,-2.17871 33.7223,18.82921 15.6619,48.30052 39.6913,88.11608 80.7562,133.80933 19.5227,21.72312 71.5876,75.84781 72.9612,75.84781 0.9764,0 1.2928,-23.92492 1.4932,-112.90273 0.1834,-81.41177 0.5662,-113.27851 1.3725,-114.25 1.8192,-2.192 133.1031,-1.9745 135.3018,0.22415 1.4161,1.41614 1.5729,18.38866 1.5867,171.75 0.017,194.14299 -0.9166,178.97991 9.9604,161.67858 7.0324,-11.18608 22.8987,-35.9708 44.8114,-70 3.0104,-4.675 8.0565,-12.55 11.2135,-17.5 21.4838,-33.68522 18.1783,-32.09557 31.1909,-15 4.605,6.05 11.3958,14.95016 15.0907,19.77814 8.5805,11.21209 8.729,10.22649 -4.6362,30.76985 -6.2447,9.5986 -19.0495,29.82701 -28.4552,44.95201 -9.4057,15.125 -19.764,31.775 -23.0184,37 -15.824,25.40522 -49.8381,80.06952 -52.5791,84.50002 -3.0933,5 -3.0933,5 -3.5933,584.5 -0.5,579.5 -0.5,579.5 -69,579.5 -68.5,0 -68.5,0 -68.7519,-254.2822 -0.2729,-275.4276 0.1185,-257.0764 -5.42,-254.1357 -3.1888,1.6932 -34.0449,21.3069 -40.8281,25.9525 -3.025,2.0717 -9.325,6.1339 -14,9.0271 -4.675,2.8932 -23.8,15.2331 -42.5,27.422 -18.7,12.1889 -38.05,24.7532 -43,27.9205 -4.95,3.1674 -23.4,15.0826 -41,26.4783 -41.7459,27.0298 -48.1509,31.185 -59.5,38.6004 -5.225,3.4139 -19.4,12.4342 -31.5,20.045 -12.1,7.6109 -28.525,18.0851 -36.5,23.276 -7.975,5.1909 -16.075,10.4403 -18,11.6654 -16.9671,10.7979 -23.914,15.2712 -36.259,23.3483 -7.8325,5.1247 -21.441,13.8567 -30.241,19.4045 -27.9991,17.6514 -25.301,15.4076 -27.5337,22.8975 -3.4781,11.6675 -7.7065,14.4942 -13.8939,9.2879 -4.0959,-3.4465 -10.5333,-0.236 -13.5924,6.7788 -5.8617,13.4414 -18.3454,21.8421 -21.9887,14.7969 -1.8952,-3.6649 -0.07,-4.5188 -23.2656,10.8821 -9.7491,6.4729 -21.3257,13.9365 -25.7257,16.5858 -4.4,2.6492 -14.075,8.7381 -21.5,13.5308 -13.2305,8.54 -50.0882,32.1244 -57,36.473 -5.762,3.6252 -24.579,15.6555 -39.5,25.2537 -24.2885,15.624 -19.4876,17.4998 -42.0258,-16.4207 -9.7894,-14.7334 -23.6001,-35.496 -30.6904,-46.1392 -16.2339,-24.3685 -18.3818,-19.522 19.2162,-43.3588 22.8398,-14.4802 37.9561,-24.1101 46,-29.3045 3.575,-2.3086 9.6706,-6.2429 13.5457,-8.7428 8.648,-5.579 8.7663,-5.7205 11.4953,-13.7426 4.8437,-14.2381 16.9914,-28.1616 32.459,-37.204 15.1274,-8.8434 15.0419,-7.6988 1.2192,-16.3355 -5.0705,-3.1681 -13.4942,-8.5658 -18.7192,-11.9949 -5.225,-3.429 -12.65,-7.9541 -16.5,-10.0558 -3.85,-2.1018 -9.0006,-5.0788 -11.4458,-6.6156 -4.4376,-2.7891 -4.4799,-2.7944 -23,-2.8781 -10.2048,-0.046 -23.7292,-0.4089 -30.0542,-0.8061 -6.325,-0.3973 -12.0314,-0.5483 -12.6808,-0.3357 -0.6495,0.2126 -6.2204,15.7629 -12.38,34.5561 -6.1595,18.7933 -17.4191,52.8446 -25.0214,75.6696 -7.6022,22.825 -14.3015,43.75 -14.8874,46.5 -0.5858,2.75 -1.4816,5.9 -1.9907,7 -2.4245,5.2393 -12.1797,34.1277 -17.5596,52 -1.9867,6.6 -4.2431,12.9748 -5.0143,14.1662 -1.6549,2.5568 -2.6023,2.9343 -48.4658,19.3138 -22.5164,8.0414 -32.9648,11.9514 -35.7998,13.397 -1.4851,0.7572 -8.1002,3.2755 -14.7002,5.596 -6.6,2.3206 -14.925,5.2746 -18.5,6.5646 -3.575,1.2899 -16.175,5.7954 -28,10.0123 -11.825,4.2168 -28.925,10.3445 -38,13.6171 -9.075,3.2726 -18.3,6.5357 -20.5,7.2513 -2.2,0.7157 -11.425,4.1315 -20.5,7.5907 -9.075,3.4592 -20.1,7.5116 -24.5,9.0055 -15.9993,5.432 -48.159,16.9021 -54.5,19.4381 -8.4778,3.3905 -13.7867,4.2667 -14.5053,2.3942 z m 574.0755,-326.3268 c 3.2614,-0.8515 9.6549,-1.9731 14.2077,-2.4924 4.5529,-0.5193 8.8279,-1.267 9.5,-1.6617 0.6722,-0.3946 10.8971,-7.0824 22.7221,-14.8617 11.825,-7.7794 23.7233,-15.4195 26.4407,-16.9781 10.7097,-6.1429 28.5593,-18.6309 28.5593,-19.9807 0,-2.7973 -1.983,-2.4843 -15.6555,2.4712 -36.6135,13.27 -46.6571,16.5699 -58.8445,19.3334 -24.785,5.62 -32.1232,7.0991 -50.5,10.179 -31.7351,5.3188 -31.3903,5.1587 -22.7954,10.5896 5.3743,3.3959 7.0562,4.3289 21.2954,11.8135 8.8945,4.6753 12.3961,4.897 25.0702,1.5879 z m 110.9799,-672.27 c 2.0137,-6.4625 5.4588,-16.475 7.6558,-22.25 13.1247,-34.4998 10.0761,-64.8416 -7.2354,-72.0122 -5.0027,-2.0722 -5.0523,-1.7574 -5.5361,35.1194 -0.2482,18.916 -0.6405,42.6053 -0.8719,52.6428 -0.5239,22.7294 0.563,23.9092 5.9876,6.5 z m -159.5386,-19.5468 c 73.4365,-19.0476 99.2603,-108.5338 47.0571,-163.0647 -53.5258,-55.9126 -148.9912,-29.805 -167.0827,45.6932 -1.0322,4.3075 -2.4122,8.477 -3.0667,9.2656 -2.2507,2.712 -0.5672,29.4022 2.5169,39.9027 8.0089,27.2682 30.4919,54.6026 51.1565,62.1952 26.3035,9.6644 48.0618,11.5476 69.4189,6.008 z m -25.782,-21.6624 c -46.5948,-12.5669 -70.5057,-66.9917 -48.5259,-110.4526 35.7455,-70.6801 139.0951,-47.0605 142.0385,32.4616 1.9292,52.1222 -44.8307,91.1207 -93.5126,77.991 z m 19.9418,-98.6958 c 2.3583,-2.1343 2.3117,-3.862 -0.1713,-6.345 -2.4077,-2.4077 -4.3218,-2.5353 -6.4286,-0.4286 -4.5835,4.5835 1.7909,11.1257 6.5999,6.7736 z m 35.1575,-1.709 c 6.6321,-2.7711 11.4763,-11.5308 10.1845,-18.4166 -2.8634,-15.2634 -20.6391,-20.5708 -30.8908,-9.2233 -12.414,13.7408 3.4118,34.8659 20.7063,27.6399 z m 335.266,120.6462 c 42.2137,-12.845 80.1958,-75.701 65.0415,-107.6363 -0.9,-1.8965 -1.6363,-4.3184 -1.6363,-5.3819 0,-6.2434 -8.6463,-26.0325 -16.0598,-36.7565 -42.6704,-61.7249 -137.3683,-54.0989 -169.3917,13.641 -36.9626,78.1877 37.9329,161.7281 122.0463,136.1337 z m -61.5948,-18.9798 c -52.0652,-8.8544 -79.9431,-66.2825 -54.916,-113.1264 35.3635,-66.1907 131.6802,-47.422 141.1435,27.5039 6.2835,49.7497 -38.0875,93.8095 -86.2275,85.6225 z m 10.0657,-99.3376 c 2.1923,-1.1732 2.6358,-5.8634 0.7343,-7.7648 -3.0445,-3.0445 -7.8,-0.6361 -7.8,3.9503 0,3.9598 3.3823,5.7858 7.0657,3.8145 z m 37.3522,-3.9141 c 4.4991,-2.7806 7.9735,-9.4279 7.888,-15.0918 -0.3121,-20.6903 -30.5789,-23.3405 -34.2978,-3.0031 -2.7563,15.0732 13.3943,26.1389 26.4098,18.0949 z"
         id="path402892" /><path
         style="fill:#a57662"
         d="m 3917.6289,2238.055 c 0,-1.0743 13.6232,-34.7078 23.9738,-59.1873 4.5348,-10.725 11.7531,-27.825 16.0406,-38 4.2876,-10.175 15.3049,-36.275 24.483,-58 19.4541,-46.0488 26.435,-62.6561 36.9908,-88 4.2379,-10.175 12.205,-29.0605 17.7046,-41.9678 5.4997,-12.9072 11.7871,-27.9822 13.972,-33.5 6.5994,-16.6657 11.5499,-28.5777 25.502,-61.3639 7.3333,-17.2325 13.3332,-31.52 13.3332,-31.75 0,-1.2724 -3.6824,0.6744 -21.6797,11.4612 -27.6332,16.5623 -32.7719,19.6193 -49.8203,29.639 -8.25,4.8487 -18.15,10.7037 -22,13.0111 -3.85,2.3073 -11.05,6.3582 -16,9.0018 -4.95,2.6436 -12.825,7.1364 -17.5,9.9839 -4.675,2.8475 -17.05,10.0235 -27.5,15.9466 -10.45,5.9231 -21.6197,12.2923 -24.8217,14.1537 -5.9252,3.4446 -8.6783,4.1951 -8.6783,2.3657 0,-1.4041 11.6106,-27.5601 14.4185,-32.4813 2.7826,-4.8771 13.0356,-29.039 22.066,-52 3.6773,-9.35 7.2522,-17.9 7.9443,-19 0.692,-1.1 2.7257,-5.825 4.5192,-10.5 1.7935,-4.675 5.701,-14.3005 8.6833,-21.3899 5.8712,-13.9568 5.9941,-14.9037 1.5219,-11.7192 -7.5359,5.3661 -7.6163,3.4497 -0.7433,-17.7243 2.9755,-9.1667 8.1668,-25.1568 11.5364,-35.5337 3.3695,-10.3769 8.8504,-26.4978 12.1797,-35.8242 5.6766,-15.9019 5.9428,-17.0379 4.2774,-18.2557 -1.6745,-1.2244 -1.5624,-1.8917 1.9626,-11.6758 2.0562,-5.7075 5.0366,-14.5028 6.6232,-19.5451 3.4716,-11.0337 13.2025,-37.7941 20.4841,-56.3321 2.9165,-7.425 5.6305,-14.625 6.0312,-16 0.4007,-1.375 2.2021,-5.65 4.0033,-9.5 1.8011,-3.85 5.1191,-11.1531 7.3734,-16.2291 45.8427,-103.224 119.4,-203.6204 202.3438,-276.1736 11.725,-10.2562 11.725,-10.2562 25,-3.6998 52.4837,25.9211 113.775,0.6268 113.775,-46.9538 0,-3.2056 0.8658,-3.1442 14.5,1.0285 86.352,26.4279 160.8849,-74.0812 111.1237,-149.8525 -47.5765,-72.4447 -160.7579,-53.4518 -180.5654,30.3006 -2.1371,9.0362 -2.8964,10.0407 -7.6083,10.0644 -14.267,0.072 1.0023,-85.5702 21.6396,-121.37132 12.154,-21.08434 17.3776,-29.39148 23.988,-38.14778 127.6293,-169.0623 429.9095,-135.34768 505.9285,56.4284 11.4114,28.7878 22.0706,90.0398 17.6663,101.5172 -2.1016,5.4767 -9.9568,1.4092 -11.8,-6.1101 -22.7197,-92.6849 -148.2816,-106.67023 -187.8688,-20.9251 -35.1871,76.2147 36.4937,160.5276 117.9956,138.7894 13.0714,-3.4864 12.2828,-3.7436 14.413,4.7009 7.6822,30.4531 33.0956,51.5564 63.5092,52.7381 13.4092,0.521 13.6777,2.1457 12.8342,77.6563 -0.4347,38.923 -0.403,38.7973 -7.3383,29.0548 -61.5564,-86.4725 -242.5564,-85.4718 -410.7711,2.271 -18.5643,9.6833 -18.8113,9.9152 -15.5809,14.628 9.554,13.9383 22.6922,17.806 35.329,10.4003 5.654,-3.3135 5.8269,-2.4179 1.3557,7.0229 -13.3796,28.2506 8.9712,56.3402 32.8035,41.2262 5.9116,-3.749 6.0243,-3.5768 3.3724,5.154 -10.9744,36.1311 33.7082,62.9306 51.013,30.5963 2.3529,-4.3965 2.9451,-3.007 2.9249,6.8621 -0.075,36.6958 32.4979,53.1135 51.2638,25.8382 3.3019,-4.7992 3.3019,-4.7992 4.015,-1.8069 4.8601,20.3953 7.6283,26.2541 16.7729,35.4996 24.1979,24.4646 65.0047,8.2386 76.5924,-30.4556 1.5465,-5.1644 2.4465,-5.2583 5.6743,-0.5925 18.2066,26.3175 56.964,-2.2725 54.5085,-40.2091 -0.5783,-8.9361 -0.076,-9.2925 5.0619,-3.5937 16.967,18.8183 43.2773,1.0899 42.0621,-28.3423 -0.3354,-8.1239 -0.045,-8.4776 4.8133,-5.8734 17.7525,9.5147 32.4694,-10.9331 27.9991,-38.9022 -0.873,-5.4615 -0.873,-5.4615 2.7848,-2.25 3.94,3.4594 7.5959,4.112 9.5881,1.7116 2.6539,-3.1978 3.1849,-1.4741 2.5415,8.25 -9.7246,146.9675 -58.9854,251.1788 -164.0481,347.0436 -9.1415,8.3412 -7.4233,7.844 7.6177,-2.2046 5.836,-3.899 14.6991,-9.564 19.6957,-12.589 4.9966,-3.025 26.7717,-16.8721 48.389,-30.7712 21.6173,-13.8992 42.0042,-26.9961 45.3042,-29.1043 3.3,-2.1081 20.625,-13.2904 38.5,-24.8495 17.875,-11.5591 40.15,-25.9408 49.5,-31.9594 49.1782,-31.6559 80.1887,-51.8134 81.75,-53.1394 5.4772,-4.6516 2.0356,-650.74906 -3.5,-657.06706 -8.2073,-9.36731 -26.6284,-29.0142 -59.75,-63.72595 -16.775,-17.58035 -34.1104,-35.79232 -38.5232,-40.47104 -8.0232,-8.50676 -8.0232,-8.50676 -30,-9.75618 -47.0751,-2.67629 -80.3892,-5.35878 -81.9717,-6.60046 -1.5344,-1.20395 5.0806,-43.54121 7.1221,-45.58268 0.7768,-0.7768 5.4729,-0.79452 16.4796,-0.0622 34.1698,2.27358 37.8932,2.40551 37.8932,1.3427 0,-0.57601 -2.859,-5.25616 -6.3533,-10.40034 -17.6331,-25.95895 -33.3352,-56.82387 -43.7237,-85.94617 -4.7592,-13.34158 -12.0881,-39.83065 -11.3505,-41.0242 1.4307,-2.31489 50.4222,-1.00971 51.324,1.36732 0.4695,1.2375 3.4005,10.125 6.5134,19.75 18.1417,56.0946 43.0121,92.37716 115.5008,168.5 14.6648,15.4 29.7871,31.375 33.6052,35.5 3.818,4.125 7.2925,7.6512 7.7211,7.83602 0.4285,0.18481 0.7681,-51.98532 0.7547,-115.93362 -0.014,-63.9483 0.3462,-116.64027 0.7992,-117.09327 0.453,-0.453 30.4978,-0.70788 66.7664,-0.56639 65.9427,0.25726 65.9427,0.25726 66.1955,176.50726 0.139,96.9375 0.6099,176.25 1.0464,176.25 0.4365,0 7.7255,-10.9125 16.1978,-24.25 8.4723,-13.3375 22.6558,-35.5 31.5188,-49.25 8.863,-13.75 21.0153,-32.7625 27.0051,-42.25 11.6889,-18.51449 12.157,-18.93374 15.632,-14 1.2589,1.7875 7.7935,10.32779 14.5213,18.97842 6.7278,8.65063 12.6657,16.53818 13.1954,17.52789 0.7732,1.44474 -1.4429,5.53946 -11.2417,20.77158 -13.5824,21.11372 -37.8446,59.80625 -59.8659,95.47217 -24.0956,39.0252 -37.1917,60.0772 -42.6128,68.5 -5.1489,8 -5.1489,8 -5.1491,586.75 -1e-4,462.2811 -0.2516,578.7697 -1.2501,578.8478 -0.6875,0.054 -30.275,0.046 -65.75,-0.019 -35.475,-0.064 -65.0625,-0.108 -65.75,-0.098 -0.9968,0.015 -1.25,-51.8264 -1.25,-255.9224 0,-140.7675 -0.3775,-256.1743 -0.8389,-256.4595 -0.7916,-0.4892 -19.1893,11.0293 -71.1611,44.5528 -24.1704,15.5907 -63.3398,40.9717 -71.5,46.3305 -7.1104,4.6694 -62.8154,40.4565 -70,44.9707 -3.3,2.0735 -8.25,5.4767 -11,7.5628 -5.0147,3.804 -24.6852,16.5073 -75,48.4354 -14.85,9.4233 -33.075,21.0825 -40.5,25.9092 -62.6588,40.7326 -86.221,55.6205 -87.1343,55.0561 -0.4422,-0.2733 -0.7946,-5.1067 -0.7829,-10.7408 0.038,-18.1944 -6.3707,-32.9785 -20.3328,-46.9083 -8.2267,-8.2076 -8.624,-8.7679 -6.2168,-8.7679 5.693,0 18.956,10.0216 27.3128,20.6376 15.6354,19.8625 17.7798,20.5272 14.0733,4.3624 -6.6293,-28.912 -31.482,-45.5 -68.1695,-45.5 -23.079,0 -25.8948,3.269 25.7502,-29.8952 80.9785,-52.0009 83.9221,-53.6048 98.379,-53.6048 39.2899,0 59.1813,32.3736 46.5433,75.75 -2.1615,7.4187 9.8763,0.084 14.2638,-8.6911 11.0944,-22.1892 4.0504,-51.0886 -17.27,-70.8533 -9.7607,-9.0485 -9.6697,-10.3887 0.4956,-7.3011 21.8081,6.624 31.8237,21.6029 34.1042,51.0048 1.8981,24.4705 11.6565,20.0755 13.5721,-6.1126 1.3375,-18.2842 -5.2909,-34.6621 -19.8188,-48.9704 -9.6251,-9.4795 -9.532,-10.7546 0.4184,-5.7316 6.7157,3.3901 15.4445,11.6122 25.8356,24.336 8.2564,10.1099 9.5061,10.6173 8.5587,3.4748 -3.0695,-23.1385 -22.687,-44.0198 -45.0819,-47.986 -3.3,-0.5844 -6.8058,-1.4957 -7.7907,-2.0249 -2.1267,-1.143 -1.046,-1.7585 -13.8841,7.9067 -65.9776,49.671 -156.3888,85.6059 -248.3252,98.6994 -9.9,1.4099 -18.45,2.704 -19,2.8758 -0.55,0.1717 2.2874,2.4451 6.3053,5.052 9.1197,5.9172 9.3588,5.4892 -6.8094,12.1858 -17.6034,7.291 -20.5982,8.1612 -22.7886,6.6214 -25.0923,-17.6397 -90.2317,-32.5447 -99.9142,-22.8621 -0.5724,0.5724 -43.2463,130.0828 -61.329,186.1264 -7.8082,24.2 -14.7069,44.4897 -15.3304,45.0883 -1.1758,1.1288 -47.4627,18.5499 -53.6337,20.1863 -5.14,1.3629 -29.1699,10.3343 -31.5,11.7603 -2.224,1.3609 -33.3661,12.6461 -41.6854,15.1058 -5.8524,1.7303 -56.3464,19.8549 -75.3146,27.0338 -50.5114,19.117 -112.5,40.338 -112.5,38.5128 z m 539.5,-458.2124 c 5.4552,-2.6053 18.3633,-13.4449 17.2894,-14.5188 -0.2462,-0.2463 -3.7329,1.2378 -7.748,3.298 -17.7576,9.1116 -33.1569,2.0922 -34.7843,-15.8555 -0.9846,-10.8581 -5.0341,-3.5166 -5.1802,9.3912 -0.1147,10.1295 5.2357,18.6472 12.7502,20.2979 1.4701,0.323 3.1229,0.7363 3.6729,0.9185 2.1961,0.7276 8.3127,-0.8153 14,-3.5313 z m 171.0654,-19.8653 c 5.7465,-2.6101 10.9103,-7.4372 16.5564,-15.477 6.444,-9.1759 6.2165,-11.0564 -0.5856,-4.8397 -16.4081,14.9961 -33.0903,12.7109 -40.4657,-5.5429 -1.9229,-4.7591 -3.0705,-3.9775 -3.0705,2.091 0,19.2613 12.9342,30.414 27.5654,23.7686 z m -85.6525,-4.3424 c 2.4271,-1.1568 7.1903,-4.8402 10.5848,-8.1853 9.69,-9.5487 12.9966,-15.9474 4.9061,-9.4939 -17.6881,14.1091 -36.691,9.534 -40.8628,-9.838 -1.0283,-4.7748 -2.2222,-3.9672 -2.957,2 -2.5834,20.9811 11.407,33.583 28.3289,25.5172 z M 4407.27,1738.1844 c 5.1808,-2.5531 15.3589,-10.73 15.3589,-12.3389 0,-0.477 -2.5875,0.3266 -5.75,1.7857 -17.4527,8.0522 -31.7084,0.8471 -34.7057,-17.5409 -1.2229,-7.5017 -1.2941,-7.6368 -2.4901,-4.7226 -9.9028,24.1278 6.2435,43.3351 27.5869,32.8167 z m 93.5696,-27.5232 c 12.2864,-6.5196 20.3133,-17.7112 8.4137,-11.7308 -17.5881,8.8392 -35.4176,1.5494 -35.6177,-14.5627 -0.061,-4.9244 -1.6732,-6.4962 -3.042,-2.9661 -8.292,21.3853 10.6156,39.6763 30.246,29.2596 z m 107.6044,-13.946 c 6.7225,-3.2544 22.7886,-20.5771 20.8668,-22.499 -0.281,-0.2809 -3.1232,1.6169 -6.3161,4.2176 -15.6254,12.727 -39.3658,9.0046 -39.3658,-6.1725 0,-0.6949 -0.4758,-2.515 -1.0574,-4.0446 -2.6515,-6.974 -3.9986,5.1442 -1.5998,14.3918 3.6375,14.023 15.2875,20.0052 27.4723,14.1067 z m 87.0051,-0.7558 c 7.0133,-3.5779 23.14,-23.4648 20.8695,-25.7354 -0.2447,-0.2447 -2.8217,2.0456 -5.7268,5.0895 -14.993,15.7093 -32.4224,14.0147 -40.5839,-3.9458 -1.8176,-4 -1.8176,-4 -2.1688,1 -1.4059,20.0195 12.0593,31.5251 27.61,23.5917 z m -212.7321,-36.2745 c 5.5456,-2.5389 17.9477,-13.0835 16.7825,-14.269 -0.3462,-0.3522 -3.4962,0.8429 -7,2.6557 -17.3673,8.9857 -33.3637,1.3148 -35.5378,-17.0417 -1.2096,-10.2133 -4.8301,-0.9685 -4.1732,10.6563 0.9859,17.4479 14.0156,25.2838 29.9285,17.9987 z m 197.4921,-19.3114 c 5.1851,-3.0387 13.223,-11.8909 16.8531,-18.5605 3.3597,-6.1729 2.8207,-6.1734 -4.2728,0 -16.1743,14.068 -32.6386,11.5583 -38.8469,-5.9214 -2.8433,-8.0056 -5.0538,-5.2136 -3.8302,4.8379 2.3151,19.0181 15.9655,27.9293 30.0968,19.6477 z m 68.1893,-0.078 c 6.2649,-3.1219 13.6404,-10.9669 17.9993,-19.1451 4.814,-9.032 3.997,-9.3603 -4.0188,-1.6151 -14.8531,14.3519 -28.8356,13.6366 -37.173,-1.9018 -3.8968,-7.2623 -5.0072,-7.2664 -4.2709,-0.015 2.0068,19.7648 13.7875,29.4926 27.4634,22.6775 z m -189.4813,-8.4289 c 4.7113,-2.3529 15.2711,-12.4117 17.5828,-16.7486 1.5873,-2.9777 0.8506,-2.8426 -4.4742,0.821 -20.3737,14.0175 -33.5303,9.0755 -40.1218,-15.071 -0.9294,-3.4047 -2.4132,2.2924 -2.4409,9.3723 -0.078,19.8108 13.3493,29.6695 29.4541,21.6263 z m -233.6897,-197.5928 c 5.6042,-2.8354 16.315,-11.7626 15.3357,-12.7819 -0.3112,-0.3238 -3.6218,1.034 -7.3571,3.0174 -17.3618,9.2191 -30.194,4.1739 -34.6819,-13.636 -1.9929,-7.9086 -3.8952,-5.4219 -3.8952,5.0919 0,18.1749 14.1403,26.6357 30.5985,18.3086 z m -80.53,-5.0186 c 6.2111,-1.8443 13.8585,-6.6341 18.8777,-11.8239 4.0247,-4.1616 3.0461,-4.5259 -3.0702,-1.143 -20.0392,11.0838 -36.2234,4.3453 -37.6609,-15.6806 -0.5733,-7.9862 -2.3883,-7.8221 -4.1462,0.3748 -4.4069,20.5486 7.6945,33.708 25.9996,28.2727 z m 354.5275,-174.6372 c 12.1209,-24.2678 29.9244,-41.4549 55.8056,-53.8736 10.4303,-5.0048 10.4044,-3.8626 0.431,-18.9891 -35.614,-54.0149 -71.648,-59.8517 -107.4979,-17.4126 -10.3989,12.3102 -22.8625,30.4149 -21.6956,31.5153 0.4735,0.4465 5.6581,3.2799 11.5213,6.2964 25.4878,13.1132 40.804,28.2836 52.4625,51.9636 4.6515,9.4476 4.508,9.4396 8.9731,0.5 z m 27.4352,-65.1555 c -2.6823,-8.1276 -1.8616,-19.0945 1.429,-19.0945 6.798,0 9.917,12.4956 4.8235,19.3245 -2.9535,3.9596 -4.8934,3.8882 -6.2525,-0.23 z m -67.9323,-0.196 c -5.5972,-7.1156 -1.5984,-22.4461 5.1767,-19.8463 2.8964,1.1115 3.0261,16.9145 0.1766,21.5251 -1.0314,1.6689 -3.273,0.966 -5.3533,-1.6788 z m 78.5379,-83.6485 c 12.4143,-12.6557 16.889,-20.6637 22.247,-39.8138 2.0284,-7.2499 3.2888,-38.9362 1.5488,-38.9362 -0.3121,0 -3.0803,2.0469 -6.1514,4.5486 -6.9693,5.6771 -7.531,5.0935 -5.8319,-6.0588 3.5597,-23.3646 3.7228,-23.0324 -7.1113,-14.4898 -11.1095,8.7597 -10.7551,9.0065 -13.252,-9.2307 -1.9999,-14.60756 -1.989,-14.60156 -10.4949,-5.791 -8.3938,8.6945 -8.4571,8.6912 -11.9505,-0.6275 -4.3764,-11.67417 -10.4254,-24.35082 -11.6196,-24.35082 -1.2154,0 -1.0602,-0.34349 -8.3375,18.45308 -6.5194,16.83914 -5.5637,16.42924 -15.1199,6.48556 -4.2862,-4.46001 -8.1322,-7.73326 -8.5465,-7.27388 -0.6091,0.67517 -3.0516,23.35776 -3.0243,28.08526 0.018,3.0866 -8.8543,-1.8259 -17.1615,-9.5024 -5.0276,-4.6459 -5.1745,-3.4463 -2.2181,18.1176 1.7995,13.1249 1.8365,13.0732 -5.2038,7.2772 -7.4706,-6.1501 -7.4141,-6.1931 -7.3785,5.6076 0.091,30.2167 9.8432,54.3815 28.3156,70.163 5.6261,4.8065 5.6261,4.8065 14.8898,-3.6249 25.682,-23.3747 23.7126,-23.3704 47.7236,-0.1039 11.4498,11.0948 8.9776,10.9537 18.6769,1.0658 z m -318.0744,998.1487 c -36.6126,-55.0336 -38.1104,-44.2579 10.45,-75.1815 22.2682,-14.1805 50.5588,-32.4055 62.8681,-40.5 50.1585,-32.9839 68.402,-39.4493 99.567,-35.2856 40.2813,5.3817 58.8704,28.4981 53.5312,66.5684 -1.2886,9.188 4.2757,4.8667 -54.9787,42.6971 -9.075,5.7938 -33.6,21.4606 -54.5,34.815 -63.1247,40.3346 -83.3897,52.9879 -84.863,52.9879 -0.7725,0 -15.206,-20.7456 -32.0746,-46.1013 z m 243.0118,-93.1487 c 3.6025,-20.415 -3.5555,-40.7189 -20.3029,-57.5898 -8.0256,-8.0849 -10.4717,-11.1602 -8.8766,-11.1602 27.7362,0 56.8379,54.2793 37.1053,69.2073 -6.9107,5.2281 -8.9087,5.1128 -7.9258,-0.4573 z m 119.1264,-473.4255 c -0.6917,-1.1191 1.7873,-35.1457 2.6212,-35.9797 0.3471,-0.3471 0.9075,0.089 1.2452,0.9692 2.5861,6.7391 -1.041,39.5821 -3.8664,35.0105 z m 67.4888,-44.3627 c -4.8353,-4.5048 -8.1894,-15.0214 -8.1894,-25.6777 0,-7.3616 0.6359,-6.4513 3.4598,4.9529 2.4286,9.8077 5.2609,16.4564 7.9671,18.7023 1.9095,1.5848 2.069,4.0607 0.2617,4.0607 -0.7213,0 -2.2959,-0.9172 -3.4992,-2.0382 z m -135.5227,-8.6285 c -1.3725,-1.3725 -0.5965,-3.3333 1.3191,-3.3333 3.0585,0 6.5733,-6.3424 9.8898,-17.8459 3.4205,-11.8639 4.1244,-13.1217 4.1244,-7.37 0,14.9882 -10.0962,33.7864 -15.3333,28.5492 z m 63.5081,-16.6227 c -2.0825,-2.5093 -3.1253,-10.368 -3.0801,-23.2106 0.083,-23.5734 2.2799,-21.4664 3.8614,3.7035 0.5081,8.0869 1.4008,15.5948 1.9838,16.6842 2.0176,3.7698 -0.1461,5.9786 -2.7651,2.8229 z m 118.2788,-18.1826 c -2.7713,-3.6333 -6.7254,-14.8451 -7.945,-22.528 -1.0308,-6.4927 0.756,-4.1678 4.3928,5.7158 3.064,8.327 5.7845,13.9513 8.7231,18.0342 2.8904,4.0157 -2.07,2.8435 -5.1709,-1.222 z m -231.7869,-2.1947 c -1.1354,-1.1353 -0.7365,-2.3333 0.7768,-2.3333 2.2532,0 7.6434,-7.0634 12.3487,-16.182 4.1623,-8.0663 4.2787,-8.1895 3.8455,-4.0707 -1.2086,11.4928 -12.7304,26.8266 -16.971,22.586 z m 271.0769,-22.0833 c -3.1801,-3.3245 -8.0207,-13.5724 -7.5545,-15.9933 0.2312,-1.2008 1.228,-0.1894 3.2029,3.25 1.5769,2.7463 4.6088,7.099 6.7376,9.6727 5.3327,6.4474 3.3209,9.0365 -2.386,3.0706 z m -408.7436,-225.2376 c -66.3477,-8.1631 -88.7526,-96.3234 -34.8215,-137.018 33.5607,-25.3238 85.1772,-15.026 106.6761,21.2825 32.7954,55.3867 -9.4399,123.4148 -71.8546,115.7355 z m 11,-98.0124 c 5.3586,-5.3586 -2.5484,-13.4337 -8.1713,-8.345 -3.7229,3.3691 -1.1428,10.345 3.8263,10.345 1.2898,0 3.245,-0.9 4.345,-2 z m 36.0387,-2.0198 c 9.2952,-4.742 12.5827,-17.9096 6.6933,-26.809 -10.0342,-15.1627 -34.8024,-7.9992 -34.71,10.0389 0.074,14.3748 15.0915,23.3641 28.0167,16.7701 z m 265.2261,98.0145 c -55.4272,-12.0392 -75.0794,-84.6438 -34.4425,-127.2473 27.9008,-29.251 75.8525,-29.299 104.4235,-0.1044 53.5386,54.7072 4.7053,143.5741 -69.981,127.3517 z m 17.3355,-94.76 c 4.195,-2.8011 3.4724,-9.6764 -1.1387,-10.8337 -4.2194,-1.059 -7.4616,1.0044 -7.4616,4.7488 0,5.2031 4.8169,8.6111 8.6003,6.0849 z m 34.9411,-3.1144 c 18.3421,-8.3317 12.5898,-35.1203 -7.5414,-35.1203 -16.133,0 -24.5497,17.8742 -14.2054,30.1677 3.1853,3.7855 9.4691,6.7884 14.2054,6.7884 1.925,0 5.3186,-0.8261 7.5414,-1.8358 z"
         id="path402891" /><path
         style="fill:#58362d"
         d="m 3980.6289,2215.1824 c 0,-0.9301 14.8422,-35.6365 20.0203,-46.8147 2.293,-4.95 7.9894,-17.775 12.6586,-28.5 4.6692,-10.725 12.471,-28.5 17.3375,-39.5 4.8664,-11 11.9745,-27.2 15.7956,-36 3.8212,-8.8 10.8644,-24.775 15.6516,-35.5 4.7872,-10.725 12.4493,-28.05 17.0268,-38.5 4.5775,-10.45 11.9652,-27.302 16.4172,-37.449 4.452,-10.1469 7.7565,-18.7325 7.3435,-19.0792 -0.4131,-0.3466 -5.4761,-2.5391 -11.2511,-4.8722 -20.8806,-8.4357 -36,-15.4801 -36,-16.7731 0,-1.5763 9.4697,-24.7364 25.5123,-62.3957 11.7442,-27.5691 11.7442,-27.5691 16.866,-30.4337 24.2249,-13.5492 123.6644,-83.6694 161.6625,-113.9971 9.6475,-7.7 19.885,-15.78 22.75,-17.9555 7.7585,-5.8912 6.6694,-7.1847 -3.0033,-3.5669 -11.4384,4.2782 -21.1932,6.148 -35.1659,6.7407 -13.8784,0.5886 -13.8784,0.5886 -20.1853,6.1852 -31.1638,27.6533 -42.1563,36.819 -86.4657,72.0965 -37.8042,30.0983 -55.1659,43.3997 -97.4706,74.6758 -51.3701,37.9782 -67.5644,49.0199 -92.5,63.0689 -6.875,3.8734 -19.475,11.0841 -28,16.0237 -8.525,4.9396 -15.6634,8.5473 -15.8631,8.0171 -0.6222,-1.6521 13.2529,-30.9899 15.3631,-32.4837 3.9505,-2.7966 35.6231,-22.9482 47.1919,-30.0257 16.2989,-9.9711 67.8543,-44.0041 84.7328,-55.934 7.6586,-5.4132 20.2586,-14.1231 28,-19.3555 7.7414,-5.2323 18.3503,-12.6261 23.5753,-16.4306 5.225,-3.8046 18.275,-13.2508 29,-20.9916 21.1506,-15.2655 27.9211,-20.4109 62,-47.1182 26.2734,-20.5902 25.4031,-19.5886 19.5025,-22.445 -6.5821,-3.1864 -11.2428,-9.1235 -12.6999,-16.1781 -1.4873,-7.2007 -2.0558,-7.2049 -10.0308,-0.073 -26.1807,23.4124 -56.9862,48.352 -98.6082,79.8314 -14.485,10.9552 -29.785,22.5463 -34,25.758 -4.215,3.2117 -14.4136,10.6723 -22.6636,16.5791 -8.25,5.9069 -19.275,13.8322 -24.5,17.6118 -14.1646,10.2462 -72.9891,49.4697 -74.1912,49.4697 -3.5566,0 9.7445,-29.695 14.6912,-32.7984 2.2,-1.3801 8.275,-5.3053 13.5,-8.7225 5.225,-3.4172 17.8118,-11.4987 27.9707,-17.9589 10.1588,-6.4602 25.1694,-16.4582 33.3568,-22.2178 8.1874,-5.7597 19.2256,-13.3313 24.5293,-16.8258 5.3038,-3.4945 13.9651,-9.4188 19.2475,-13.1651 5.2824,-3.7464 17.8513,-12.6615 27.931,-19.8115 20.3993,-14.4702 38.8982,-28.2158 52.4647,-38.9838 4.95,-3.929 12.4982,-9.728 16.7738,-12.8868 8.8794,-6.5602 9.0635,-8.1379 0.8464,-7.2534 -16.0237,1.7248 -31.1872,-4.7251 -36.736,-15.626 -2.9341,-5.7641 -2.9977,-5.7693 -7.9312,-0.6413 -2.1742,2.2598 -10.703,9.7729 -18.953,16.6957 -8.25,6.9228 -18.8313,15.9863 -23.5139,20.1412 -4.6827,4.1549 -12.7827,11.0143 -18,15.243 -5.2174,4.2288 -17.1361,13.91 -26.4861,21.5139 -9.35,7.6039 -23.075,18.5154 -30.5,24.2479 -7.425,5.7325 -18.2833,14.1469 -24.1295,18.6988 -5.8462,4.5518 -12.3712,9.2816 -14.5,10.5107 -2.1288,1.229 -5.3452,3.3336 -7.1477,4.6768 -4.5875,3.4186 -4.7002,2.6774 -1.2363,-8.1362 3.0617,-9.5577 3.0617,-9.5577 9.2876,-13.7877 3.4242,-2.3266 11.6259,-8.3464 18.2259,-13.3775 43.2387,-32.9602 45.1642,-34.4687 69.3415,-54.3251 4.2122,-3.4593 12.1585,-9.8211 17.6585,-14.1373 5.5,-4.3161 13.0459,-10.4857 16.7687,-13.7102 3.7227,-3.2245 13.9165,-11.9377 22.6529,-19.3627 20.0809,-17.0668 23.0388,-21.955 9.9521,-16.4468 -26.4904,11.1496 -53.4104,7.4317 -59.0466,-8.1548 -1.9957,-5.519 -1.858,-5.6044 -25.7312,15.9642 -20.0501,18.1146 -49.0959,39.8934 -49.0959,36.8125 0,-9.6001 5.7136,-17.2511 23.8758,-31.9714 44.2807,-35.8894 48.94,-40.0884 50.5405,-45.5484 1.8654,-6.3635 2.2818,-6.0841 -8.694,-5.8336 -20.6362,0.4709 -33.9344,-10.645 -27.5966,-23.068 2.1445,-4.2036 2.1445,-4.2036 3.7594,-1.8073 12.8633,19.0873 30.0561,20.1556 54.5002,3.3865 9.9057,-6.7955 11.0107,-6.4492 5.089,1.5949 -39.3765,53.4891 -4.0237,74.2623 58.0067,34.0845 13.6589,-8.847 15.5997,-9.3453 10.7325,-2.7553 -21.9604,29.7329 -24.1478,43.1736 -8.2975,50.9841 14.2679,7.0308 40.0366,0.8751 68.8961,-16.4581 10.3527,-6.2178 10.6909,-5.8637 3.7965,3.9754 -26.9917,38.52 16.3797,51.2252 77.9235,22.8268 51.8935,-23.9453 116.1681,-107.6881 137.836,-179.5852 6.8161,-22.6168 6.6695,-22.2542 6.0639,-15 -6.6695,79.8912 -76.7506,197.6729 -153.8816,258.6209 -4.6931,3.7084 -4.9504,3.0668 6.8917,17.1811 51.1075,60.9136 122.0296,88.1877 201.9987,77.6816 51.6328,-6.7834 114.6247,-29.2387 155.8801,-55.568 32.5347,-20.7638 37.9099,-24.367 47.6791,-31.9617 54.8469,-42.6382 98.8149,-95.3699 129.6185,-155.4539 11.8257,-23.0667 24.1375,-50.9733 28.6767,-65 3.3814,-10.4493 16.6706,-54.1809 20.36,-67 4.5172,-15.6955 0.3998,22.639 -5.6925,53 -24.0138,119.6715 -72.4586,200.179 -169.4627,281.6197 -14.1288,11.862 -23.9162,18.5213 -52.0016,35.3817 -59.8567,35.9336 -142.3779,63.3923 -215.2484,71.6232 -12.7515,1.4403 -13.1755,2.61 -3.1816,8.7769 8.2738,5.1056 8.5934,4.5505 -6.0684,10.5404 -22.3458,9.1291 -14.522,10.9316 -51,-11.7498 -5.5,-3.4198 -5.5,-3.4198 -28,-4.0798 -12.375,-0.363 -27.2253,-0.9351 -33.0007,-1.2714 -10.5006,-0.6113 -10.5006,-0.6113 -26.7505,48.7739 -8.9374,27.1618 -20.9246,63.5602 -26.6382,80.8852 -5.7136,17.325 -15.4426,47.25 -21.62,66.5 -12.7055,39.5928 -10.9264,36.2803 -21.4906,40.0148 -4.4,1.5554 -15.3917,5.6759 -24.4259,9.1566 -17.762,6.8433 -19.6942,7.3197 -18.5709,4.5786 0.3944,-0.9625 6.4576,-19.075 13.4737,-40.25 7.0162,-21.175 17.5416,-51.6681 23.3899,-67.7624 11.2009,-30.8247 11.6753,-32.6239 8.8832,-33.6949 -0.9625,-0.3692 -5.5105,-2.9344 -10.1066,-5.7004 -9.5926,-5.773 -9.0318,-6.0016 -12.6543,5.1577 -2.9207,8.9974 -19.6393,56.4353 -34.0097,96.5 -4.7346,13.2 -11.2794,31.6375 -14.544,40.9723 -7.142,20.4217 -5.4535,18.7498 -26.7379,26.4755 -20.9408,7.601 -19.8986,8.623 -11.9162,-11.685 3.6239,-9.2195 10.8634,-28.2378 16.0879,-42.2628 8.8328,-23.7117 18.8975,-50.3892 35.6522,-94.5 3.7603,-9.9 8.8639,-23.1038 11.3412,-29.3417 2.4773,-6.238 4.2696,-11.863 3.9828,-12.5 -1.203,-2.6723 -45.5663,-36.8374 -46.5526,-35.8511 -0.5568,0.5568 -4.2677,8.3655 -8.2463,17.3526 -13.9963,31.6151 -18.8641,42.5301 -28.0255,62.8402 -5.0859,11.275 -15.7925,35.35 -23.7924,53.5 -8,18.15 -20.0244,45.375 -26.7211,60.5 -6.6966,15.125 -16.2349,36.95 -21.1962,48.5 -4.9613,11.55 -9.5359,21.5383 -10.1659,22.1962 -1.8158,1.8965 -36.6454,13.8898 -36.6454,12.6185 z m 346.4052,-102.0647 c -13.0537,-19.6625 -26.81,-40.3671 -30.5696,-46.0101 -3.7596,-5.643 -6.8293,-10.593 -6.8217,-11 0.01,-0.407 7.9951,-5.7468 17.75,-11.8663 24.6472,-15.4619 79.3015,-50.43 93.7361,-59.9728 38.705,-25.5882 51.7745,-30.7227 78,-30.6429 47.7935,0.1452 73.0911,26.6267 64.5438,67.5643 -1.3413,6.4245 0.684,4.8848 -43.8137,33.3097 -7.0016,4.4725 -22.9755,14.7197 -35.4976,22.7714 -12.5221,8.0518 -25.5721,16.3686 -29,18.4818 -3.4279,2.1132 -14.1075,8.9165 -23.7325,15.1185 -21.1465,13.6259 -59.9328,37.9964 -60.4724,37.9964 -0.2136,0 -11.0687,-16.0875 -24.1224,-35.75 z m 237.2382,-109.0074 c 1.2715,-17.913 -6.2428,-36.7732 -20.3814,-51.1552 -9.4779,-9.6412 -9.4341,-9.523 -2.6454,-7.1323 20.3804,7.1772 30.7175,22.4814 32.8973,48.7045 0.8397,10.1013 0.3447,11.7058 -4.7489,15.3956 -5.6916,4.1231 -5.8167,3.9811 -5.1216,-5.8126 z m 26.3566,-16.5475 c 0,-17.9078 -8.9697,-38.5592 -21.5424,-49.5982 -4.6959,-4.123 -3.7884,-5.0679 1.7472,-1.8192 6.6585,3.9076 13.0051,9.9516 19.3705,18.447 14.8265,19.7875 18.8466,20.3651 14.9864,2.1533 -6.4359,-30.363 -31.985,-48.1611 -69.3117,-48.2841 -8.3875,-0.028 -15.25,-0.1285 -15.25,-0.224 0,-0.095 5.5125,-3.6715 12.25,-7.9466 6.7375,-4.2752 19.675,-12.5766 28.75,-18.4478 90.6823,-58.6675 96.5063,-60.9009 123.3459,-47.3002 20.7931,10.5366 28.7618,36.5138 19.977,65.1227 -3.7805,12.3114 10.0105,8.4085 16.631,-4.7067 10.9472,-21.6863 4.9619,-50.3279 -14.6257,-69.9889 -9.3813,-9.4164 -9.5655,-10.0063 -2.3802,-7.6197 20.4535,6.7936 29.7784,22.0884 31.6675,51.9416 1.782,28.1632 16.3845,16.5512 16.3845,-13.0291 0,-16.7461 -4.5191,-28.1154 -16.7519,-42.1452 -6.7348,-7.7243 -6.8857,-8.8251 -0.6376,-4.6526 5.4523,3.6411 10.718,8.8297 16.6461,16.4026 12.5924,16.0859 17.4865,19.0386 16.2134,9.7816 -3.5091,-25.5139 -20.1415,-44.6873 -44.075,-50.8085 -4.2531,-1.0877 -7.9324,-2.1772 -8.1762,-2.421 -0.5859,-0.5859 37.4989,-25.6088 40.993,-26.9336 1.4916,-0.5655 2.883,-0.8235 3.0921,-0.5734 21.0884,25.2246 31.2589,54.7185 31.1171,90.2374 -0.102,25.5427 7.7007,17.9488 -66.7469,64.9608 -9.8042,6.1912 -28.2782,18.0067 -41.0532,26.2567 -12.7751,8.25 -32.3021,20.85 -43.3934,28 -11.0914,7.15 -25.9174,16.7251 -32.9468,21.2781 -7.0294,4.553 -13.5682,8.7313 -14.5307,9.2852 -1.6075,0.9251 -1.75,0.3252 -1.75,-7.3682 z m -292.1177,-471.008 c -9.4607,-3.5579 -15.0148,-9.6232 -17.1873,-18.769 -1.1498,-4.8401 -3.5462,-6.5859 -5.2519,-3.8261 -12.5788,20.353 -54.5269,9.723 -56.2614,-14.2571 -0.4694,-6.4888 -0.6787,-6.6413 -5.3745,-3.9146 -30.068,17.4593 -56.3998,-2.2669 -48.402,-36.2599 2.2711,-9.6528 3.0948,-8.2849 3.0948,5.1393 0,30.5693 20.4458,39.4548 49.9314,21.6994 3.196,-1.9245 5.9699,-3.4991 6.1642,-3.4991 0.1944,0 0.3375,4.4644 0.3182,9.9209 -0.094,26.5673 21.3638,33.1272 49.3897,15.0989 9.8532,-6.3383 10.6255,-6.1952 10.6884,1.9802 0.21,27.2921 31.9203,27.8956 65.3265,1.2432 8.0672,-6.4363 9.1793,-6.3176 3.8599,0.412 -14.5603,18.4202 -41.7406,30.5059 -56.296,25.0319 z m 586.625,-131.0098 c -20.4746,-28.5794 -60.1452,-50.6627 -104.5073,-58.1754 -13.3671,-2.2637 -14.1448,-2.4586 -13.5633,-3.3994 0.2851,-0.4614 2.891,-1.1489 5.7909,-1.5279 29.4737,-3.8515 63.8626,-15.5578 97.2724,-33.1123 20.7128,-10.8831 19.1894,-15.3461 19.2982,56.5377 0.069,45.4041 0.035,45.7156 -4.2909,39.6773 z m -296.1396,-68.4273 c -5.589,-7.4255 -26.0964,-30.8224 -31.6148,-36.0693 -3.491,-3.3193 -3.491,-3.3193 -16.1243,9.25 -14.8997,14.8243 -16.3121,15.4311 -13.5424,5.8193 3.7475,-13.0055 7.9296,-31.4154 7.3498,-32.3536 -0.3219,-0.5209 -4.1612,2.2091 -8.5317,6.0666 -25.5678,22.5668 -40.2478,28.2735 -30.7533,11.955 15.0202,-25.8156 15.2276,-27.1291 3.0992,-19.6267 -23.0049,14.2302 -26.6499,14.6783 -17.9662,2.2087 7.7639,-11.1487 12.716,-19.1835 12.716,-20.6317 0,-1.3865 -1.3902,-0.9526 -12.5,3.9019 -19.6807,8.5996 -32.5133,11.1247 -25.4993,5.0177 14.2776,-12.4314 21.2275,-19.3129 19.7855,-19.5906 -0.8783,-0.1691 -6.3097,0.3923 -12.0699,1.2476 -24.1948,3.5926 -48.3943,0.9835 -71.0341,-7.6584 -10.1812,-3.8863 -9.2198,-4.4553 2.9756,-1.7611 74.9074,16.5488 142.0388,-55.7088 118.7097,-127.7744 -31.4344,-97.1035 -168.408,-93.2358 -194.4891,5.4918 -2.1813,8.2572 -2.1813,8.2572 -6.0299,8.2572 -11.083,0 0.024,-70.4551 17.1277,-108.6495 3.7624,-8.40159 17.696,-14.37529 49.0238,-21.01779 59.2965,-12.57276 131.2041,29.43629 150.5744,87.96679 9.5137,28.7474 27.9664,50.0752 35.9885,41.5961 3.7093,-3.9206 22.5298,-20.255 25.8271,-22.4155 3.6518,-2.3928 13.2729,4.3731 29.0787,20.4491 7.5616,7.6909 7.6121,7.6845 17.1749,-2.1792 12.2895,-12.6763 14.5817,-16.5219 20.9339,-35.1203 21.013,-61.5233 88.2031,-101.71716 150.562,-90.06791 13.7877,2.57568 41.9748,10.91863 46.6488,13.80737 4.754,2.93812 18.1671,45.80544 21.7873,69.63084 5.2355,34.4558 -0.2925,63.7562 -7.1546,37.9224 -26.3963,-99.3735 -163.8768,-103.00527 -194.7906,-5.1457 -22.9156,72.5406 57.2236,152.9268 126.1056,126.4943 1.031,-0.3956 1.3457,-0.2122 0.893,0.5203 -4.5732,7.3995 -51.1157,13.3986 -74.7718,9.6377 -14.9916,-2.3834 -15.0081,-2.292 -1.8819,10.4402 8.84,8.5745 10.9762,11.1308 9.3017,11.1308 -3.223,0 -17.4873,-4.6903 -28.0817,-9.2337 -12.31,-5.279 -11.9276,-2.1884 2.3962,19.3682 4.0884,6.1527 5.2592,8.8655 3.8261,8.8655 -0.7158,0 -19.0715,-10.5485 -25.9081,-14.8886 -2.7448,-1.7425 -5.1315,-2.7454 -5.3037,-2.2287 -0.4081,1.2241 8.8966,19.745 13.8985,27.6649 6.0507,9.5807 5.6032,10.1177 -4.0082,4.8093 -9.0189,-4.9813 -18.1356,-11.5253 -27.2836,-19.5845 -6.6588,-5.8662 -9.8125,-7.9094 -9.8125,-6.3572 0,1.8685 6.5212,28.7866 8.0513,33.234 2.3113,6.7178 2.2729,6.3508 0.664,6.3508 -0.7067,0 -7.1192,-5.8494 -14.25,-12.9987 -7.1309,-7.1493 -13.2745,-12.8868 -13.6525,-12.75 -1.5644,0.5662 -24.5662,26.0014 -32.1024,35.4987 -9.6443,12.154 -8.9486,11.9952 -15.3427,3.5 z m 11.4781,-62.3189 c 13.1957,-25.101 27.7276,-39.2298 53.0524,-51.5808 14.4244,-7.0347 14.2047,-5.739 3.6368,-21.456 -42.9341,-63.853 -81.6868,-62.936 -126.4094,2.9913 -8.2703,12.1915 -8.3424,11.7007 2.4309,16.5528 25.556,11.5099 43.4295,28.5694 55.9152,53.3687 5.5334,10.9904 5.6608,10.9918 11.3741,0.124 z m 27.7303,-65.5933 c -1.3421,-3.4976 -1.8921,-17.0245 -0.7216,-17.7479 2.4245,-1.4984 6.1464,4.0349 6.1308,9.1146 -0.022,7.1306 -3.7205,13.0337 -5.4092,8.6333 z m -67.1847,-0.1295 c -4.6225,-2.9986 -4.3211,-15.8701 0.4141,-17.6872 2.5729,-0.9873 3.3353,1.6308 2.7472,9.4334 -0.5784,7.6758 -1.2698,9.4809 -3.1613,8.2538 z m -110.5785,5.3219 c -10.1219,-2.7878 -14.0006,-5.5027 -27.3129,-19.1178 -19.6878,-20.1357 -34.9067,-24.9132 -48.6544,-15.2736 -3.6321,2.5468 -3.6457,2.5396 -6.3609,-3.3912 -28.9531,-63.2421 35.6858,-129.1233 97.8645,-99.7452 50.7582,23.982 56.2219,99.1605 9.4873,130.5417 -11.5059,7.726 -16.8849,9.2277 -25.0236,6.9861 z m -13.1273,-91.7045 c 2.9927,-2.8116 2.9407,-6.2903 -0.1401,-9.3712 -4.5818,-4.5817 -11.5455,-1.8401 -11.5455,4.5455 0,6.2334 7.0764,9.1557 11.6856,4.8257 z m 33.9993,-0.8893 c 9.508,-3.5924 14.7639,-16.1399 10.7674,-25.7049 -8.4403,-20.2004 -38.4523,-14.4455 -38.4523,7.3734 0,13.4304 14.7708,23.2108 27.6849,18.3315 z m 258.8151,93.135 c -51.4374,-12.7455 -63.2756,-96.8531 -18.3949,-130.6913 60.265,-45.4372 141.7411,21.6253 111.2189,91.5438 -3.6175,8.2866 -3.8545,8.4287 -8.4776,5.0798 -13.1911,-9.5556 -31.0641,-4.222 -46.2211,13.7931 -11.4805,13.6452 -28.4533,22.6712 -38.1253,20.2746 z m 27.0455,-92.526 c 2.9986,-2.9986 3.1037,-5.4504 0.3819,-8.9106 -4.0892,-5.1986 -11.9274,-2.5567 -11.9274,4.0202 0,6.7252 6.8213,9.6146 11.5455,4.8904 z m 36.2412,-2.7855 c 10.6309,-7.0353 11.9167,-21.5286 2.6976,-30.408 -17.7454,-17.0918 -43.6093,6.4251 -28.8925,26.2707 5.6472,7.6152 17.9929,9.5651 26.1949,4.1373 z"
         id="path402890" /></g></g></svg>
